<svg width="220" height="240" viewBox="0 0 220 240" fill="none" xmlns="http://www.w3.org/2000/svg">
<rect width="220" height="240" fill="white"/>
<path d="M89.295 38C89.295 37.4447 89.295 36.9103 89.295 36.397C89.295 35.8837 89.295 35.319 89.295 34.703V31.35C89.295 30.7293 89.295 30.1577 89.295 29.635C89.295 29.1123 89.295 28.5733 89.295 28.018C89.673 28.018 90.1607 28.018 90.758 28.018C91.36 28.018 92.0483 28.018 92.823 28.018C93.5837 28.018 94.2113 28.1183 94.706 28.319C95.2053 28.5197 95.5787 28.8323 95.826 29.257C96.0733 29.677 96.197 30.216 96.197 30.874C96.197 31.4853 96.0827 32.029 95.854 32.505C95.63 32.9763 95.252 33.3473 94.72 33.618C94.1927 33.8887 93.4717 34.024 92.557 34.024C92.3237 34.024 92.074 34.024 91.808 34.024C91.542 34.024 91.283 34.024 91.031 34.024C90.779 34.024 90.5597 34.024 90.373 34.024V32.974H92.319C92.9163 32.974 93.404 32.904 93.782 32.764C94.1647 32.624 94.447 32.4 94.629 32.092C94.811 31.784 94.902 31.3803 94.902 30.881C94.902 30.4703 94.8343 30.1437 94.699 29.901C94.5683 29.6583 94.3933 29.4787 94.174 29.362C93.9593 29.2407 93.726 29.1613 93.474 29.124C93.222 29.0867 92.977 29.068 92.739 29.068H89.925L90.541 28.2C90.541 28.76 90.541 29.3013 90.541 29.824C90.541 30.342 90.541 30.9113 90.541 31.532V34.703C90.541 35.319 90.541 35.8837 90.541 36.397C90.541 36.9103 90.541 37.4447 90.541 38H89.295ZM100.752 38.154C100.178 38.154 99.6716 38.056 99.2329 37.86C98.7989 37.6593 98.4349 37.3887 98.1409 37.048C97.8469 36.7073 97.6229 36.3177 97.4689 35.879C97.3196 35.4357 97.2449 34.9713 97.2449 34.486C97.2449 33.7907 97.3849 33.1747 97.6649 32.638C97.9496 32.0967 98.3509 31.6697 98.8689 31.357C99.3916 31.0443 100.012 30.888 100.731 30.888C101.286 30.888 101.779 30.979 102.208 31.161C102.637 31.343 103.001 31.5973 103.3 31.924C103.599 32.2507 103.825 32.6333 103.979 33.072C104.133 33.506 104.21 33.9773 104.21 34.486C104.21 35.172 104.07 35.7927 103.79 36.348C103.51 36.9033 103.111 37.3443 102.593 37.671C102.08 37.993 101.466 38.154 100.752 38.154ZM100.752 37.146C101.261 37.146 101.683 37.02 102.019 36.768C102.355 36.516 102.607 36.187 102.775 35.781C102.943 35.375 103.027 34.9433 103.027 34.486C103.027 33.9633 102.934 33.5083 102.747 33.121C102.56 32.7337 102.297 32.4327 101.956 32.218C101.615 32.0033 101.212 31.896 100.745 31.896C100.241 31.896 99.8163 32.0103 99.4709 32.239C99.1256 32.4677 98.8643 32.778 98.6869 33.17C98.5143 33.562 98.4279 34.0007 98.4279 34.486C98.4279 34.9433 98.5119 35.375 98.6799 35.781C98.8526 36.187 99.1116 36.516 99.4569 36.768C99.8023 37.02 100.234 37.146 100.752 37.146ZM108.587 38.154C107.924 38.154 107.374 37.986 106.935 37.65C106.496 37.3093 106.167 36.8637 105.948 36.313C105.729 35.7577 105.619 35.1557 105.619 34.507C105.619 33.8163 105.736 33.198 105.969 32.652C106.202 32.106 106.541 31.6767 106.984 31.364C107.432 31.0467 107.973 30.888 108.608 30.888C108.93 30.888 109.224 30.9323 109.49 31.021C109.761 31.105 109.999 31.2193 110.204 31.364C110.409 31.504 110.58 31.6603 110.715 31.833H110.834V31.091C110.834 30.503 110.834 29.9337 110.834 29.383C110.834 28.8277 110.834 28.284 110.834 27.752L111.989 27.612C111.989 28.1767 111.989 28.7437 111.989 29.313C111.989 29.8777 111.989 30.4703 111.989 31.091V34.934C111.989 35.508 111.989 36.033 111.989 36.509C111.989 36.985 111.989 37.482 111.989 38H110.981L110.925 37.048H110.813C110.631 37.286 110.428 37.4867 110.204 37.65C109.98 37.8133 109.733 37.937 109.462 38.021C109.196 38.1097 108.904 38.154 108.587 38.154ZM108.937 37.118C109.226 37.118 109.488 37.0737 109.721 36.985C109.954 36.8917 110.162 36.761 110.344 36.593C110.531 36.425 110.694 36.222 110.834 35.984V32.897C110.689 32.687 110.517 32.512 110.316 32.372C110.12 32.2273 109.905 32.12 109.672 32.05C109.439 31.9753 109.201 31.938 108.958 31.938C108.468 31.938 108.064 32.0547 107.747 32.288C107.43 32.5213 107.192 32.834 107.033 33.226C106.879 33.6133 106.802 34.0427 106.802 34.514C106.802 34.9667 106.877 35.3913 107.026 35.788C107.175 36.18 107.406 36.4997 107.719 36.747C108.032 36.9943 108.438 37.118 108.937 37.118ZM117.22 38.14C116.469 38.14 115.83 37.9813 115.302 37.664C114.78 37.3467 114.381 36.915 114.105 36.369C113.83 35.823 113.692 35.207 113.692 34.521C113.692 33.835 113.823 33.219 114.084 32.673C114.35 32.1223 114.735 31.6883 115.239 31.371C115.748 31.0537 116.366 30.895 117.094 30.895C117.365 30.895 117.631 30.9183 117.892 30.965C118.158 31.0117 118.408 31.0747 118.641 31.154C118.875 31.2287 119.082 31.3173 119.264 31.42L119.159 32.484C118.898 32.3347 118.651 32.2203 118.417 32.141C118.189 32.057 117.974 32.001 117.773 31.973C117.577 31.9403 117.395 31.924 117.227 31.924C116.518 31.924 115.949 32.1573 115.519 32.624C115.09 33.086 114.875 33.7113 114.875 34.5C114.875 34.9947 114.969 35.4427 115.155 35.844C115.347 36.2407 115.631 36.5557 116.009 36.789C116.392 37.0177 116.866 37.132 117.43 37.132C117.631 37.132 117.829 37.1133 118.025 37.076C118.226 37.0387 118.424 36.985 118.62 36.915C118.816 36.8403 119.005 36.7447 119.187 36.628L119.285 37.685C119.131 37.769 118.952 37.846 118.746 37.916C118.541 37.9813 118.31 38.035 118.053 38.077C117.801 38.119 117.524 38.14 117.22 38.14ZM122.738 38.14C122.323 38.14 121.959 38.0607 121.646 37.902C121.333 37.7387 121.088 37.5077 120.911 37.209C120.738 36.9103 120.652 36.551 120.652 36.131C120.652 35.753 120.72 35.4357 120.855 35.179C120.99 34.9177 121.168 34.7053 121.387 34.542C121.606 34.3787 121.849 34.2527 122.115 34.164C122.381 34.0707 122.647 34.0007 122.913 33.954L125.09 33.576C125.109 33.1047 125.046 32.75 124.901 32.512C124.761 32.2693 124.563 32.106 124.306 32.022C124.049 31.938 123.765 31.896 123.452 31.896C123.293 31.896 123.123 31.9077 122.941 31.931C122.759 31.9543 122.565 31.9917 122.36 32.043C122.159 32.0897 121.947 32.1503 121.723 32.225C121.499 32.2997 121.263 32.3907 121.016 32.498L120.953 31.441C121.121 31.371 121.31 31.3033 121.52 31.238C121.735 31.1727 121.961 31.1143 122.199 31.063C122.442 31.007 122.689 30.965 122.941 30.937C123.193 30.909 123.447 30.895 123.704 30.895C124.222 30.895 124.668 30.9767 125.041 31.14C125.419 31.3033 125.708 31.56 125.909 31.91C126.11 32.26 126.21 32.7173 126.21 33.282C126.21 33.4967 126.21 33.7697 126.21 34.101C126.21 34.4323 126.21 34.7473 126.21 35.046V35.949C126.21 36.2663 126.21 36.5907 126.21 36.922C126.21 37.2487 126.21 37.608 126.21 38H125.16L125.097 37.013H124.985C124.84 37.1997 124.658 37.3793 124.439 37.552C124.22 37.7247 123.965 37.867 123.676 37.979C123.391 38.0863 123.079 38.14 122.738 38.14ZM123.074 37.181C123.321 37.181 123.569 37.1297 123.816 37.027C124.063 36.9243 124.294 36.7727 124.509 36.572C124.728 36.3667 124.913 36.11 125.062 35.802L125.069 34.304C124.994 34.346 124.894 34.388 124.768 34.43C124.647 34.472 124.462 34.521 124.215 34.577C123.972 34.6283 123.634 34.6937 123.2 34.773C122.934 34.8197 122.698 34.8967 122.493 35.004C122.288 35.1067 122.124 35.249 122.003 35.431C121.886 35.6083 121.828 35.8253 121.828 36.082C121.828 36.4833 121.947 36.768 122.185 36.936C122.428 37.0993 122.724 37.181 123.074 37.181ZM130.402 38.154C130.113 38.154 129.821 38.1307 129.527 38.084C129.238 38.0373 128.965 37.9767 128.708 37.902C128.452 37.8227 128.228 37.734 128.036 37.636L128.127 36.551C128.342 36.6723 128.571 36.7797 128.813 36.873C129.061 36.9617 129.315 37.0317 129.576 37.083C129.842 37.1297 130.108 37.153 130.374 37.153C130.631 37.153 130.867 37.125 131.081 37.069C131.301 37.0083 131.473 36.901 131.599 36.747C131.73 36.5883 131.795 36.3597 131.795 36.061C131.795 35.865 131.739 35.704 131.627 35.578C131.515 35.452 131.326 35.3377 131.06 35.235C130.799 35.1323 130.444 35.018 129.996 34.892C129.628 34.7893 129.299 34.6633 129.009 34.514C128.72 34.3647 128.491 34.164 128.323 33.912C128.16 33.66 128.078 33.331 128.078 32.925C128.078 32.295 128.284 31.8003 128.694 31.441C129.11 31.077 129.667 30.895 130.367 30.895C130.657 30.895 130.937 30.9207 131.207 30.972C131.478 31.0187 131.728 31.0817 131.956 31.161C132.185 31.2403 132.383 31.3243 132.551 31.413L132.453 32.498C132.229 32.358 131.998 32.2437 131.76 32.155C131.522 32.0617 131.294 31.9963 131.074 31.959C130.855 31.917 130.661 31.896 130.493 31.896C130.302 31.896 130.111 31.924 129.919 31.98C129.733 32.0313 129.576 32.1293 129.45 32.274C129.324 32.414 129.261 32.617 129.261 32.883C129.261 33.0743 129.306 33.2353 129.394 33.366C129.483 33.4967 129.637 33.6133 129.856 33.716C130.076 33.8187 130.379 33.926 130.766 34.038C131.228 34.1733 131.623 34.3157 131.949 34.465C132.281 34.6097 132.535 34.801 132.712 35.039C132.89 35.277 132.978 35.606 132.978 36.026C132.978 36.432 132.89 36.796 132.712 37.118C132.535 37.4353 132.257 37.6873 131.879 37.874C131.501 38.0607 131.009 38.154 130.402 38.154ZM137.404 38.154C136.942 38.154 136.55 38.0747 136.228 37.916C135.906 37.7527 135.661 37.5077 135.493 37.181C135.33 36.8497 135.248 36.4273 135.248 35.914C135.248 35.508 135.248 35.1067 135.248 34.71C135.248 34.3087 135.248 33.9167 135.248 33.534C135.248 33.1467 135.248 32.7757 135.248 32.421C135.248 32.0617 135.248 31.7187 135.248 31.392C135.248 30.916 135.248 30.475 135.248 30.069C135.248 29.663 135.248 29.2407 135.248 28.802L136.389 28.55C136.389 28.8953 136.389 29.215 136.389 29.509C136.389 29.803 136.389 30.0993 136.389 30.398C136.389 30.6967 136.389 31.028 136.389 31.392V35.641C136.389 36.1403 136.494 36.516 136.704 36.768C136.919 37.02 137.246 37.146 137.684 37.146C137.857 37.146 138.046 37.118 138.251 37.062C138.457 37.0013 138.639 36.908 138.797 36.782L138.895 37.797C138.802 37.867 138.676 37.93 138.517 37.986C138.359 38.0373 138.184 38.077 137.992 38.105C137.801 38.1377 137.605 38.154 137.404 38.154ZM133.911 31.973V31.056H138.825V31.973C138.359 31.973 137.887 31.973 137.411 31.973C136.94 31.973 136.48 31.973 136.032 31.973H135.556H133.911ZM143.285 38C143.285 37.4447 143.285 36.9103 143.285 36.397C143.285 35.8837 143.285 35.319 143.285 34.703V31.35C143.285 30.7293 143.285 30.1577 143.285 29.635C143.285 29.1123 143.285 28.5733 143.285 28.018C143.663 28.018 144.151 28.018 144.748 28.018C145.35 28.018 146.039 28.018 146.813 28.018C147.574 28.018 148.202 28.1183 148.696 28.319C149.196 28.5197 149.569 28.8323 149.816 29.257C150.064 29.677 150.187 30.216 150.187 30.874C150.187 31.4853 150.073 32.029 149.844 32.505C149.62 32.9763 149.242 33.3473 148.71 33.618C148.183 33.8887 147.462 34.024 146.547 34.024C146.314 34.024 146.064 34.024 145.798 34.024C145.532 34.024 145.273 34.024 145.021 34.024C144.769 34.024 144.55 34.024 144.363 34.024V32.974H146.309C146.907 32.974 147.394 32.904 147.772 32.764C148.155 32.624 148.437 32.4 148.619 32.092C148.801 31.784 148.892 31.3803 148.892 30.881C148.892 30.4703 148.825 30.1437 148.689 29.901C148.559 29.6583 148.384 29.4787 148.164 29.362C147.95 29.2407 147.716 29.1613 147.464 29.124C147.212 29.0867 146.967 29.068 146.729 29.068H143.915L144.531 28.2C144.531 28.76 144.531 29.3013 144.531 29.824C144.531 30.342 144.531 30.9113 144.531 31.532V34.703C144.531 35.319 144.531 35.8837 144.531 36.397C144.531 36.9103 144.531 37.4447 144.531 38H143.285ZM154.875 38.154C154.044 38.154 153.361 37.9953 152.824 37.678C152.287 37.3607 151.888 36.9267 151.627 36.376C151.366 35.8253 151.235 35.1953 151.235 34.486C151.235 33.786 151.363 33.1653 151.62 32.624C151.877 32.0827 152.245 31.6603 152.726 31.357C153.207 31.049 153.781 30.895 154.448 30.895C155.036 30.895 155.54 31.0093 155.96 31.238C156.385 31.4667 156.711 31.8027 156.94 32.246C157.169 32.6847 157.283 33.2283 157.283 33.877C157.283 34.0497 157.278 34.206 157.269 34.346C157.264 34.4813 157.25 34.619 157.227 34.759L156.212 34.248C156.221 34.1733 156.226 34.1033 156.226 34.038C156.231 33.968 156.233 33.9003 156.233 33.835C156.233 33.177 156.07 32.6777 155.743 32.337C155.416 31.9917 154.989 31.819 154.462 31.819C154.037 31.819 153.671 31.9287 153.363 32.148C153.06 32.3627 152.824 32.6613 152.656 33.044C152.488 33.4267 152.404 33.863 152.404 34.353V34.514C152.404 35.0553 152.497 35.522 152.684 35.914C152.871 36.306 153.153 36.6093 153.531 36.824C153.914 37.034 154.399 37.139 154.987 37.139C155.206 37.139 155.437 37.1227 155.68 37.09C155.927 37.0527 156.17 36.9967 156.408 36.922C156.651 36.8473 156.882 36.7493 157.101 36.628L157.15 37.671C156.973 37.769 156.767 37.8553 156.534 37.93C156.301 38 156.044 38.0537 155.764 38.091C155.484 38.133 155.188 38.154 154.875 38.154ZM151.718 34.759V33.933L156.52 33.891L157.227 34.157V34.759H151.718ZM159.122 38C159.122 37.482 159.122 36.985 159.122 36.509C159.122 36.033 159.122 35.508 159.122 34.934V34.234C159.122 33.7207 159.122 33.1957 159.122 32.659C159.122 32.1223 159.122 31.588 159.122 31.056L160.13 30.986L160.165 32.4H160.284C160.475 31.9753 160.695 31.6557 160.942 31.441C161.194 31.2217 161.448 31.0747 161.705 31C161.962 30.9253 162.197 30.888 162.412 30.888C162.543 30.888 162.673 30.8973 162.804 30.916C162.935 30.9347 163.058 30.965 163.175 31.007L163.07 32.169C162.916 32.141 162.776 32.1177 162.65 32.099C162.529 32.0803 162.386 32.071 162.223 32.071C162.088 32.071 161.934 32.092 161.761 32.134C161.593 32.1713 161.418 32.253 161.236 32.379C161.059 32.5003 160.886 32.6847 160.718 32.932C160.55 33.1747 160.403 33.499 160.277 33.905V34.983C160.277 35.529 160.277 36.04 160.277 36.516C160.277 36.9873 160.277 37.482 160.277 38H159.122ZM165.169 38C165.169 37.482 165.169 36.985 165.169 36.509C165.169 36.033 165.169 35.508 165.169 34.934V34.234C165.169 33.9493 165.169 33.6507 165.169 33.338C165.169 33.0207 165.169 32.6917 165.169 32.351C165.169 32.0103 165.169 31.658 165.169 31.294C165.169 30.9253 165.169 30.5427 165.169 30.146C165.169 29.6513 165.234 29.2383 165.365 28.907C165.5 28.5757 165.684 28.312 165.918 28.116C166.156 27.92 166.426 27.78 166.73 27.696C167.033 27.6073 167.357 27.563 167.703 27.563C167.871 27.563 168.034 27.5723 168.193 27.591C168.351 27.605 168.496 27.626 168.627 27.654C168.762 27.682 168.876 27.7147 168.97 27.752L168.865 28.753C168.715 28.697 168.554 28.655 168.382 28.627C168.214 28.5943 168.036 28.578 167.85 28.578C167.304 28.578 166.905 28.711 166.653 28.977C166.405 29.2383 166.282 29.6373 166.282 30.174C166.282 30.3187 166.282 30.482 166.282 30.664C166.282 30.8413 166.282 30.972 166.282 31.056L166.324 31.315V34.934C166.324 35.508 166.324 36.033 166.324 36.509C166.324 36.985 166.324 37.482 166.324 38H165.169ZM163.853 31.973V31.056H168.676V31.973C168.209 31.973 167.754 31.973 167.311 31.973C166.867 31.973 166.422 31.973 165.974 31.973H165.498H163.853ZM172.898 38.154C172.324 38.154 171.818 38.056 171.379 37.86C170.945 37.6593 170.581 37.3887 170.287 37.048C169.993 36.7073 169.769 36.3177 169.615 35.879C169.466 35.4357 169.391 34.9713 169.391 34.486C169.391 33.7907 169.531 33.1747 169.811 32.638C170.096 32.0967 170.497 31.6697 171.015 31.357C171.538 31.0443 172.159 30.888 172.877 30.888C173.433 30.888 173.925 30.979 174.354 31.161C174.784 31.343 175.148 31.5973 175.446 31.924C175.745 32.2507 175.971 32.6333 176.125 33.072C176.279 33.506 176.356 33.9773 176.356 34.486C176.356 35.172 176.216 35.7927 175.936 36.348C175.656 36.9033 175.257 37.3443 174.739 37.671C174.226 37.993 173.612 38.154 172.898 38.154ZM172.898 37.146C173.407 37.146 173.829 37.02 174.165 36.768C174.501 36.516 174.753 36.187 174.921 35.781C175.089 35.375 175.173 34.9433 175.173 34.486C175.173 33.9633 175.08 33.5083 174.893 33.121C174.707 32.7337 174.443 32.4327 174.102 32.218C173.762 32.0033 173.358 31.896 172.891 31.896C172.387 31.896 171.963 32.0103 171.617 32.239C171.272 32.4677 171.011 32.778 170.833 33.17C170.661 33.562 170.574 34.0007 170.574 34.486C170.574 34.9433 170.658 35.375 170.826 35.781C170.999 36.187 171.258 36.516 171.603 36.768C171.949 37.02 172.38 37.146 172.898 37.146ZM178.263 38C178.263 37.482 178.263 36.985 178.263 36.509C178.263 36.033 178.263 35.508 178.263 34.934V34.234C178.263 33.7207 178.263 33.1957 178.263 32.659C178.263 32.1223 178.263 31.588 178.263 31.056L179.271 30.986L179.306 32.4H179.425C179.616 31.9753 179.835 31.6557 180.083 31.441C180.335 31.2217 180.589 31.0747 180.846 31C181.102 30.9253 181.338 30.888 181.553 30.888C181.683 30.888 181.814 30.8973 181.945 30.916C182.075 30.9347 182.199 30.965 182.316 31.007L182.211 32.169C182.057 32.141 181.917 32.1177 181.791 32.099C181.669 32.0803 181.527 32.071 181.364 32.071C181.228 32.071 181.074 32.092 180.902 32.134C180.734 32.1713 180.559 32.253 180.377 32.379C180.199 32.5003 180.027 32.6847 179.859 32.932C179.691 33.1747 179.544 33.499 179.418 33.905V34.983C179.418 35.529 179.418 36.04 179.418 36.516C179.418 36.9873 179.418 37.482 179.418 38H178.263ZM183.854 38C183.854 37.482 183.854 36.985 183.854 36.509C183.854 36.033 183.854 35.508 183.854 34.934V34.234C183.854 33.7207 183.854 33.1957 183.854 32.659C183.854 32.1223 183.854 31.588 183.854 31.056L184.862 30.986L184.897 32.26H185.023C185.168 32.0547 185.35 31.847 185.569 31.637C185.793 31.4223 186.057 31.245 186.36 31.105C186.664 30.9603 187.011 30.888 187.403 30.888C187.973 30.888 188.409 31.0303 188.712 31.315C189.02 31.595 189.221 31.9987 189.314 32.526L189.384 32.568C189.403 32.694 189.417 32.8247 189.426 32.96C189.44 33.0907 189.447 33.2283 189.447 33.373C189.447 33.6763 189.447 33.9447 189.447 34.178C189.447 34.4113 189.447 34.6633 189.447 34.934C189.447 35.4847 189.447 36.005 189.447 36.495C189.447 36.9803 189.447 37.482 189.447 38H188.292C188.292 37.482 188.292 36.9827 188.292 36.502C188.292 36.0167 188.292 35.5103 188.292 34.983V33.667C188.292 33.1117 188.199 32.6917 188.012 32.407C187.826 32.1223 187.487 31.98 186.997 31.98C186.699 31.98 186.428 32.0453 186.185 32.176C185.947 32.302 185.73 32.4723 185.534 32.687C185.343 32.897 185.168 33.128 185.009 33.38V34.983C185.009 35.529 185.009 36.04 185.009 36.516C185.009 36.9873 185.009 37.482 185.009 38H183.854ZM192.674 38C192.674 37.482 192.674 36.9827 192.674 36.502C192.674 36.0167 192.674 35.5103 192.674 34.983V33.667C192.674 33.1117 192.581 32.6917 192.394 32.407C192.208 32.1223 191.869 31.98 191.379 31.98C191.085 31.98 190.817 32.043 190.574 32.169C190.336 32.295 190.117 32.4653 189.916 32.68C189.72 32.89 189.545 33.1233 189.391 33.38L189.223 32.288H189.349C189.508 32.0733 189.702 31.8587 189.93 31.644C190.164 31.4247 190.434 31.245 190.742 31.105C191.05 30.9603 191.4 30.888 191.792 30.888C192.52 30.888 193.041 31.105 193.353 31.539C193.671 31.973 193.829 32.5843 193.829 33.373C193.829 33.6763 193.829 33.9447 193.829 34.178C193.829 34.4113 193.829 34.6633 193.829 34.934C193.829 35.4847 193.829 36.005 193.829 36.495C193.829 36.9803 193.829 37.482 193.829 38H192.674Z" fill="#898998"/>
<path d="M88.477 68C88.717 67.31 88.969 66.584 89.233 65.822C89.497 65.06 89.752 64.337 89.998 63.653L91.528 59.243C91.81 58.451 92.062 57.737 92.284 57.101C92.506 56.459 92.731 55.814 92.959 55.166H95.704C95.938 55.832 96.163 56.483 96.379 57.119C96.601 57.755 96.85 58.466 97.126 59.252L98.647 63.671C98.893 64.379 99.145 65.108 99.403 65.858C99.667 66.602 99.916 67.316 100.15 68H97.954C97.72 67.274 97.48 66.53 97.234 65.768C96.988 65 96.754 64.274 96.532 63.59L94.408 57.02H94.228L92.077 63.527C91.843 64.235 91.6 64.976 91.348 65.75C91.096 66.524 90.85 67.274 90.61 68H88.477ZM91.114 64.976L91.312 63.356H97.54L97.702 64.976H91.114ZM102.116 68C102.116 67.292 102.116 66.611 102.116 65.957C102.116 65.303 102.116 64.577 102.116 63.779V59.45C102.116 58.646 102.116 57.908 102.116 57.236C102.116 56.564 102.116 55.874 102.116 55.166C102.62 55.166 103.277 55.166 104.087 55.166C104.897 55.166 105.827 55.166 106.877 55.166C107.879 55.166 108.71 55.295 109.37 55.553C110.03 55.811 110.525 56.219 110.855 56.777C111.185 57.335 111.35 58.067 111.35 58.973C111.35 59.777 111.203 60.491 110.909 61.115C110.615 61.739 110.129 62.228 109.451 62.582C108.773 62.936 107.858 63.113 106.706 63.113C106.412 63.113 106.094 63.113 105.752 63.113C105.416 63.113 105.086 63.113 104.762 63.113C104.438 63.113 104.159 63.113 103.925 63.113V61.394H106.265C106.943 61.394 107.498 61.313 107.93 61.151C108.362 60.989 108.68 60.731 108.884 60.377C109.094 60.023 109.199 59.561 109.199 58.991C109.199 58.523 109.124 58.151 108.974 57.875C108.824 57.593 108.626 57.383 108.38 57.245C108.14 57.101 107.873 57.005 107.579 56.957C107.291 56.909 107.009 56.885 106.733 56.885H103.178L104.204 55.49C104.204 56.198 104.204 56.888 104.204 57.56C104.204 58.226 104.204 58.964 104.204 59.774V63.779C104.204 64.577 104.204 65.303 104.204 65.957C104.204 66.611 104.204 67.292 104.204 68H102.116ZM117.184 68.216C116.416 68.216 115.744 68.087 115.168 67.829C114.592 67.571 114.109 67.223 113.719 66.785C113.335 66.341 113.047 65.837 112.855 65.273C112.663 64.703 112.567 64.106 112.567 63.482C112.567 62.588 112.747 61.793 113.107 61.097C113.467 60.395 113.989 59.843 114.673 59.441C115.357 59.033 116.182 58.829 117.148 58.829C117.886 58.829 118.54 58.946 119.11 59.18C119.68 59.414 120.157 59.744 120.541 60.17C120.931 60.59 121.225 61.082 121.423 61.646C121.621 62.21 121.72 62.822 121.72 63.482C121.72 64.376 121.54 65.18 121.18 65.894C120.82 66.608 120.298 67.175 119.614 67.595C118.936 68.009 118.126 68.216 117.184 68.216ZM117.175 66.596C117.751 66.596 118.231 66.449 118.615 66.155C118.999 65.855 119.284 65.468 119.47 64.994C119.662 64.52 119.758 64.016 119.758 63.482C119.758 62.864 119.65 62.33 119.434 61.88C119.224 61.424 118.924 61.073 118.534 60.827C118.15 60.575 117.694 60.449 117.166 60.449C116.596 60.449 116.113 60.584 115.717 60.854C115.327 61.118 115.03 61.481 114.826 61.943C114.628 62.399 114.529 62.912 114.529 63.482C114.529 64.016 114.625 64.52 114.817 64.994C115.015 65.468 115.309 65.855 115.699 66.155C116.095 66.449 116.587 66.596 117.175 66.596ZM127.077 68.216C126.237 68.216 125.538 67.997 124.98 67.559C124.428 67.121 124.014 66.545 123.738 65.831C123.468 65.111 123.333 64.334 123.333 63.5C123.333 62.618 123.477 61.823 123.765 61.115C124.059 60.407 124.488 59.849 125.052 59.441C125.616 59.033 126.3 58.829 127.104 58.829C127.494 58.829 127.854 58.88 128.184 58.982C128.514 59.084 128.805 59.225 129.057 59.405C129.309 59.585 129.519 59.789 129.687 60.017H129.867V59.117C129.867 58.367 129.867 57.638 129.867 56.93C129.867 56.216 129.867 55.514 129.867 54.824L131.793 54.617C131.793 55.337 131.793 56.066 131.793 56.804C131.793 57.536 131.793 58.307 131.793 59.117V64.076C131.793 64.814 131.793 65.489 131.793 66.101C131.793 66.713 131.793 67.346 131.793 68H130.137L130.029 66.794H129.867C129.639 67.1 129.384 67.358 129.102 67.568C128.826 67.778 128.52 67.937 128.184 68.045C127.848 68.159 127.479 68.216 127.077 68.216ZM127.734 66.533C128.058 66.533 128.352 66.482 128.616 66.38C128.88 66.272 129.114 66.122 129.318 65.93C129.528 65.738 129.711 65.51 129.867 65.246V61.61C129.705 61.37 129.513 61.172 129.291 61.016C129.069 60.854 128.826 60.734 128.562 60.656C128.298 60.572 128.028 60.53 127.752 60.53C127.2 60.53 126.744 60.665 126.384 60.935C126.024 61.205 125.754 61.568 125.574 62.024C125.394 62.474 125.304 62.972 125.304 63.518C125.304 64.04 125.388 64.532 125.556 64.994C125.73 65.45 125.994 65.822 126.348 66.11C126.708 66.392 127.17 66.533 127.734 66.533ZM138.383 68.18C137.399 68.18 136.562 67.979 135.872 67.577C135.188 67.169 134.666 66.614 134.306 65.912C133.946 65.21 133.766 64.415 133.766 63.527C133.766 62.633 133.934 61.832 134.27 61.124C134.612 60.416 135.113 59.858 135.773 59.45C136.439 59.042 137.255 58.838 138.221 58.838C138.569 58.838 138.914 58.868 139.256 58.928C139.604 58.982 139.931 59.06 140.237 59.162C140.543 59.258 140.813 59.372 141.047 59.504L140.885 61.214C140.549 61.022 140.234 60.875 139.94 60.773C139.652 60.671 139.385 60.602 139.139 60.566C138.893 60.524 138.668 60.503 138.464 60.503C137.636 60.503 136.973 60.773 136.475 61.313C135.977 61.847 135.728 62.57 135.728 63.482C135.728 64.07 135.842 64.595 136.07 65.057C136.298 65.519 136.637 65.885 137.087 66.155C137.543 66.425 138.107 66.56 138.779 66.56C139.025 66.56 139.271 66.539 139.517 66.497C139.763 66.449 140.003 66.38 140.237 66.29C140.477 66.194 140.708 66.074 140.93 65.93L141.065 67.649C140.861 67.745 140.627 67.835 140.363 67.919C140.099 67.997 139.802 68.06 139.472 68.108C139.142 68.156 138.779 68.18 138.383 68.18ZM145.317 68.189C144.807 68.189 144.351 68.087 143.949 67.883C143.547 67.673 143.229 67.373 142.995 66.983C142.767 66.587 142.653 66.107 142.653 65.543C142.653 65.045 142.737 64.628 142.905 64.292C143.079 63.95 143.307 63.671 143.589 63.455C143.871 63.239 144.186 63.071 144.534 62.951C144.882 62.831 145.233 62.744 145.587 62.69L148.242 62.276C148.266 61.778 148.191 61.397 148.017 61.133C147.849 60.869 147.609 60.689 147.297 60.593C146.991 60.497 146.643 60.449 146.253 60.449C146.049 60.449 145.827 60.464 145.587 60.494C145.353 60.524 145.104 60.575 144.84 60.647C144.582 60.713 144.309 60.797 144.021 60.899C143.739 60.995 143.448 61.112 143.148 61.25L143.04 59.54C143.262 59.45 143.511 59.363 143.787 59.279C144.063 59.195 144.36 59.12 144.678 59.054C145.002 58.982 145.335 58.928 145.677 58.892C146.019 58.856 146.367 58.838 146.721 58.838C147.429 58.838 148.035 58.943 148.539 59.153C149.043 59.363 149.43 59.699 149.7 60.161C149.97 60.617 150.105 61.211 150.105 61.943C150.105 62.231 150.105 62.588 150.105 63.014C150.105 63.44 150.105 63.836 150.105 64.202V65.282C150.105 65.708 150.105 66.14 150.105 66.578C150.105 67.016 150.105 67.49 150.105 68H148.368L148.26 66.812H148.089C147.915 67.034 147.696 67.25 147.432 67.46C147.174 67.67 146.865 67.844 146.505 67.982C146.151 68.12 145.755 68.189 145.317 68.189ZM145.947 66.659C146.235 66.659 146.517 66.596 146.793 66.47C147.075 66.338 147.336 66.152 147.576 65.912C147.816 65.672 148.023 65.381 148.197 65.039V63.455C148.107 63.509 147.99 63.56 147.846 63.608C147.708 63.656 147.498 63.71 147.216 63.77C146.934 63.83 146.538 63.905 146.028 63.995C145.734 64.043 145.482 64.13 145.272 64.256C145.062 64.382 144.897 64.547 144.777 64.751C144.663 64.949 144.606 65.186 144.606 65.462C144.606 65.9 144.738 66.209 145.002 66.389C145.272 66.569 145.587 66.659 145.947 66.659ZM155.322 68.207C154.932 68.207 154.545 68.18 154.161 68.126C153.783 68.072 153.426 67.997 153.09 67.901C152.76 67.799 152.469 67.688 152.217 67.568L152.361 65.822C152.631 65.978 152.925 66.116 153.243 66.236C153.561 66.35 153.891 66.44 154.233 66.506C154.581 66.566 154.929 66.596 155.277 66.596C155.565 66.596 155.829 66.569 156.069 66.515C156.315 66.455 156.51 66.344 156.654 66.182C156.804 66.02 156.879 65.78 156.879 65.462C156.879 65.252 156.81 65.078 156.672 64.94C156.534 64.802 156.309 64.679 155.997 64.571C155.685 64.457 155.259 64.325 154.719 64.175C154.221 64.043 153.786 63.878 153.414 63.68C153.048 63.482 152.763 63.218 152.559 62.888C152.355 62.558 152.253 62.123 152.253 61.583C152.253 60.713 152.532 60.038 153.09 59.558C153.648 59.078 154.395 58.838 155.331 58.838C155.727 58.838 156.111 58.871 156.483 58.937C156.855 58.997 157.194 59.078 157.5 59.18C157.812 59.276 158.076 59.378 158.292 59.486L158.139 61.232C157.863 61.058 157.563 60.914 157.239 60.8C156.921 60.68 156.615 60.593 156.321 60.539C156.027 60.479 155.778 60.449 155.574 60.449C155.34 60.449 155.118 60.482 154.908 60.548C154.704 60.608 154.539 60.716 154.413 60.872C154.287 61.022 154.224 61.226 154.224 61.484C154.224 61.688 154.272 61.862 154.368 62.006C154.464 62.15 154.638 62.282 154.89 62.402C155.148 62.522 155.52 62.648 156.006 62.78C156.612 62.954 157.125 63.137 157.545 63.329C157.971 63.521 158.292 63.773 158.508 64.085C158.724 64.397 158.832 64.829 158.832 65.381C158.832 65.933 158.712 66.422 158.472 66.848C158.232 67.274 157.854 67.607 157.338 67.847C156.822 68.087 156.15 68.207 155.322 68.207ZM164.405 68.216C163.787 68.216 163.259 68.114 162.821 67.91C162.389 67.706 162.059 67.388 161.831 66.956C161.609 66.524 161.498 65.966 161.498 65.282C161.498 64.808 161.498 64.334 161.498 63.86C161.498 63.38 161.498 62.903 161.498 62.429C161.498 61.949 161.498 61.472 161.498 60.998C161.498 60.524 161.498 60.05 161.498 59.576C161.498 58.94 161.498 58.352 161.498 57.812C161.498 57.272 161.498 56.717 161.498 56.147L163.397 55.769C163.397 56.225 163.397 56.648 163.397 57.038C163.397 57.428 163.397 57.827 163.397 58.235C163.397 58.637 163.397 59.084 163.397 59.576V64.751C163.397 65.363 163.52 65.825 163.766 66.137C164.012 66.443 164.396 66.596 164.918 66.596C165.134 66.596 165.365 66.56 165.611 66.488C165.863 66.41 166.094 66.293 166.304 66.137L166.439 67.757C166.301 67.847 166.124 67.928 165.908 68C165.698 68.066 165.461 68.117 165.197 68.153C164.939 68.195 164.675 68.216 164.405 68.216ZM159.869 60.539V59.054H166.367V60.539C165.779 60.539 165.188 60.539 164.594 60.539C164 60.539 163.421 60.539 162.857 60.539H162.038H159.869Z" fill="#13132C"/>
<circle cx="48" cy="48" r="24" fill="#FFF7EC"/>
<path d="M46.6379 38.953C47.174 37.7907 48.826 37.7907 49.3621 38.953L51.034 42.5776C51.2525 43.0513 51.7014 43.3775 52.2194 43.4389L56.1833 43.9089C57.4544 44.0596 57.9649 45.6307 57.0251 46.4997L54.0945 49.2099C53.7115 49.5641 53.5401 50.0918 53.6417 50.6035L54.4196 54.5186C54.6691 55.774 53.3327 56.745 52.2157 56.1198L48.7327 54.1701C48.2775 53.9153 47.7225 53.9153 47.2673 54.1701L43.7843 56.1198C42.6673 56.745 41.3309 55.774 41.5804 54.5186L42.3583 50.6035C42.4599 50.0918 42.2885 49.5641 41.9055 49.2099L38.9749 46.4997C38.0351 45.6307 38.5456 44.0596 39.8167 43.9089L43.7806 43.4389C44.2986 43.3775 44.7475 43.0513 44.966 42.5776L46.6379 38.953Z" fill="#F18701"/>
<path d="M89.295 110C89.295 109.445 89.295 108.91 89.295 108.397C89.295 107.884 89.295 107.319 89.295 106.703V103.35C89.295 102.729 89.295 102.158 89.295 101.635C89.295 101.112 89.295 100.573 89.295 100.018C89.673 100.018 90.1607 100.018 90.758 100.018C91.36 100.018 92.0483 100.018 92.823 100.018C93.5837 100.018 94.2113 100.118 94.706 100.319C95.2053 100.52 95.5787 100.832 95.826 101.257C96.0733 101.677 96.197 102.216 96.197 102.874C96.197 103.485 96.0827 104.029 95.854 104.505C95.63 104.976 95.252 105.347 94.72 105.618C94.1927 105.889 93.4717 106.024 92.557 106.024C92.3237 106.024 92.074 106.024 91.808 106.024C91.542 106.024 91.283 106.024 91.031 106.024C90.779 106.024 90.5597 106.024 90.373 106.024V104.974H92.319C92.9163 104.974 93.404 104.904 93.782 104.764C94.1647 104.624 94.447 104.4 94.629 104.092C94.811 103.784 94.902 103.38 94.902 102.881C94.902 102.47 94.8343 102.144 94.699 101.901C94.5683 101.658 94.3933 101.479 94.174 101.362C93.9593 101.241 93.726 101.161 93.474 101.124C93.222 101.087 92.977 101.068 92.739 101.068H89.925L90.541 100.2C90.541 100.76 90.541 101.301 90.541 101.824C90.541 102.342 90.541 102.911 90.541 103.532V106.703C90.541 107.319 90.541 107.884 90.541 108.397C90.541 108.91 90.541 109.445 90.541 110H89.295ZM100.752 110.154C100.178 110.154 99.6716 110.056 99.2329 109.86C98.7989 109.659 98.4349 109.389 98.1409 109.048C97.8469 108.707 97.6229 108.318 97.4689 107.879C97.3196 107.436 97.2449 106.971 97.2449 106.486C97.2449 105.791 97.3849 105.175 97.6649 104.638C97.9496 104.097 98.3509 103.67 98.8689 103.357C99.3916 103.044 100.012 102.888 100.731 102.888C101.286 102.888 101.779 102.979 102.208 103.161C102.637 103.343 103.001 103.597 103.3 103.924C103.599 104.251 103.825 104.633 103.979 105.072C104.133 105.506 104.21 105.977 104.21 106.486C104.21 107.172 104.07 107.793 103.79 108.348C103.51 108.903 103.111 109.344 102.593 109.671C102.08 109.993 101.466 110.154 100.752 110.154ZM100.752 109.146C101.261 109.146 101.683 109.02 102.019 108.768C102.355 108.516 102.607 108.187 102.775 107.781C102.943 107.375 103.027 106.943 103.027 106.486C103.027 105.963 102.934 105.508 102.747 105.121C102.56 104.734 102.297 104.433 101.956 104.218C101.615 104.003 101.212 103.896 100.745 103.896C100.241 103.896 99.8163 104.01 99.4709 104.239C99.1256 104.468 98.8643 104.778 98.6869 105.17C98.5143 105.562 98.4279 106.001 98.4279 106.486C98.4279 106.943 98.5119 107.375 98.6799 107.781C98.8526 108.187 99.1116 108.516 99.4569 108.768C99.8023 109.02 100.234 109.146 100.752 109.146ZM108.587 110.154C107.924 110.154 107.374 109.986 106.935 109.65C106.496 109.309 106.167 108.864 105.948 108.313C105.729 107.758 105.619 107.156 105.619 106.507C105.619 105.816 105.736 105.198 105.969 104.652C106.202 104.106 106.541 103.677 106.984 103.364C107.432 103.047 107.973 102.888 108.608 102.888C108.93 102.888 109.224 102.932 109.49 103.021C109.761 103.105 109.999 103.219 110.204 103.364C110.409 103.504 110.58 103.66 110.715 103.833H110.834V103.091C110.834 102.503 110.834 101.934 110.834 101.383C110.834 100.828 110.834 100.284 110.834 99.752L111.989 99.612C111.989 100.177 111.989 100.744 111.989 101.313C111.989 101.878 111.989 102.47 111.989 103.091V106.934C111.989 107.508 111.989 108.033 111.989 108.509C111.989 108.985 111.989 109.482 111.989 110H110.981L110.925 109.048H110.813C110.631 109.286 110.428 109.487 110.204 109.65C109.98 109.813 109.733 109.937 109.462 110.021C109.196 110.11 108.904 110.154 108.587 110.154ZM108.937 109.118C109.226 109.118 109.488 109.074 109.721 108.985C109.954 108.892 110.162 108.761 110.344 108.593C110.531 108.425 110.694 108.222 110.834 107.984V104.897C110.689 104.687 110.517 104.512 110.316 104.372C110.12 104.227 109.905 104.12 109.672 104.05C109.439 103.975 109.201 103.938 108.958 103.938C108.468 103.938 108.064 104.055 107.747 104.288C107.43 104.521 107.192 104.834 107.033 105.226C106.879 105.613 106.802 106.043 106.802 106.514C106.802 106.967 106.877 107.391 107.026 107.788C107.175 108.18 107.406 108.5 107.719 108.747C108.032 108.994 108.438 109.118 108.937 109.118ZM117.22 110.14C116.469 110.14 115.83 109.981 115.302 109.664C114.78 109.347 114.381 108.915 114.105 108.369C113.83 107.823 113.692 107.207 113.692 106.521C113.692 105.835 113.823 105.219 114.084 104.673C114.35 104.122 114.735 103.688 115.239 103.371C115.748 103.054 116.366 102.895 117.094 102.895C117.365 102.895 117.631 102.918 117.892 102.965C118.158 103.012 118.408 103.075 118.641 103.154C118.875 103.229 119.082 103.317 119.264 103.42L119.159 104.484C118.898 104.335 118.651 104.22 118.417 104.141C118.189 104.057 117.974 104.001 117.773 103.973C117.577 103.94 117.395 103.924 117.227 103.924C116.518 103.924 115.949 104.157 115.519 104.624C115.09 105.086 114.875 105.711 114.875 106.5C114.875 106.995 114.969 107.443 115.155 107.844C115.347 108.241 115.631 108.556 116.009 108.789C116.392 109.018 116.866 109.132 117.43 109.132C117.631 109.132 117.829 109.113 118.025 109.076C118.226 109.039 118.424 108.985 118.62 108.915C118.816 108.84 119.005 108.745 119.187 108.628L119.285 109.685C119.131 109.769 118.952 109.846 118.746 109.916C118.541 109.981 118.31 110.035 118.053 110.077C117.801 110.119 117.524 110.14 117.22 110.14ZM122.738 110.14C122.323 110.14 121.959 110.061 121.646 109.902C121.333 109.739 121.088 109.508 120.911 109.209C120.738 108.91 120.652 108.551 120.652 108.131C120.652 107.753 120.72 107.436 120.855 107.179C120.99 106.918 121.168 106.705 121.387 106.542C121.606 106.379 121.849 106.253 122.115 106.164C122.381 106.071 122.647 106.001 122.913 105.954L125.09 105.576C125.109 105.105 125.046 104.75 124.901 104.512C124.761 104.269 124.563 104.106 124.306 104.022C124.049 103.938 123.765 103.896 123.452 103.896C123.293 103.896 123.123 103.908 122.941 103.931C122.759 103.954 122.565 103.992 122.36 104.043C122.159 104.09 121.947 104.15 121.723 104.225C121.499 104.3 121.263 104.391 121.016 104.498L120.953 103.441C121.121 103.371 121.31 103.303 121.52 103.238C121.735 103.173 121.961 103.114 122.199 103.063C122.442 103.007 122.689 102.965 122.941 102.937C123.193 102.909 123.447 102.895 123.704 102.895C124.222 102.895 124.668 102.977 125.041 103.14C125.419 103.303 125.708 103.56 125.909 103.91C126.11 104.26 126.21 104.717 126.21 105.282C126.21 105.497 126.21 105.77 126.21 106.101C126.21 106.432 126.21 106.747 126.21 107.046V107.949C126.21 108.266 126.21 108.591 126.21 108.922C126.21 109.249 126.21 109.608 126.21 110H125.16L125.097 109.013H124.985C124.84 109.2 124.658 109.379 124.439 109.552C124.22 109.725 123.965 109.867 123.676 109.979C123.391 110.086 123.079 110.14 122.738 110.14ZM123.074 109.181C123.321 109.181 123.569 109.13 123.816 109.027C124.063 108.924 124.294 108.773 124.509 108.572C124.728 108.367 124.913 108.11 125.062 107.802L125.069 106.304C124.994 106.346 124.894 106.388 124.768 106.43C124.647 106.472 124.462 106.521 124.215 106.577C123.972 106.628 123.634 106.694 123.2 106.773C122.934 106.82 122.698 106.897 122.493 107.004C122.288 107.107 122.124 107.249 122.003 107.431C121.886 107.608 121.828 107.825 121.828 108.082C121.828 108.483 121.947 108.768 122.185 108.936C122.428 109.099 122.724 109.181 123.074 109.181ZM130.402 110.154C130.113 110.154 129.821 110.131 129.527 110.084C129.238 110.037 128.965 109.977 128.708 109.902C128.452 109.823 128.228 109.734 128.036 109.636L128.127 108.551C128.342 108.672 128.571 108.78 128.813 108.873C129.061 108.962 129.315 109.032 129.576 109.083C129.842 109.13 130.108 109.153 130.374 109.153C130.631 109.153 130.867 109.125 131.081 109.069C131.301 109.008 131.473 108.901 131.599 108.747C131.73 108.588 131.795 108.36 131.795 108.061C131.795 107.865 131.739 107.704 131.627 107.578C131.515 107.452 131.326 107.338 131.06 107.235C130.799 107.132 130.444 107.018 129.996 106.892C129.628 106.789 129.299 106.663 129.009 106.514C128.72 106.365 128.491 106.164 128.323 105.912C128.16 105.66 128.078 105.331 128.078 104.925C128.078 104.295 128.284 103.8 128.694 103.441C129.11 103.077 129.667 102.895 130.367 102.895C130.657 102.895 130.937 102.921 131.207 102.972C131.478 103.019 131.728 103.082 131.956 103.161C132.185 103.24 132.383 103.324 132.551 103.413L132.453 104.498C132.229 104.358 131.998 104.244 131.76 104.155C131.522 104.062 131.294 103.996 131.074 103.959C130.855 103.917 130.661 103.896 130.493 103.896C130.302 103.896 130.111 103.924 129.919 103.98C129.733 104.031 129.576 104.129 129.45 104.274C129.324 104.414 129.261 104.617 129.261 104.883C129.261 105.074 129.306 105.235 129.394 105.366C129.483 105.497 129.637 105.613 129.856 105.716C130.076 105.819 130.379 105.926 130.766 106.038C131.228 106.173 131.623 106.316 131.949 106.465C132.281 106.61 132.535 106.801 132.712 107.039C132.89 107.277 132.978 107.606 132.978 108.026C132.978 108.432 132.89 108.796 132.712 109.118C132.535 109.435 132.257 109.687 131.879 109.874C131.501 110.061 131.009 110.154 130.402 110.154ZM137.404 110.154C136.942 110.154 136.55 110.075 136.228 109.916C135.906 109.753 135.661 109.508 135.493 109.181C135.33 108.85 135.248 108.427 135.248 107.914C135.248 107.508 135.248 107.107 135.248 106.71C135.248 106.309 135.248 105.917 135.248 105.534C135.248 105.147 135.248 104.776 135.248 104.421C135.248 104.062 135.248 103.719 135.248 103.392C135.248 102.916 135.248 102.475 135.248 102.069C135.248 101.663 135.248 101.241 135.248 100.802L136.389 100.55C136.389 100.895 136.389 101.215 136.389 101.509C136.389 101.803 136.389 102.099 136.389 102.398C136.389 102.697 136.389 103.028 136.389 103.392V107.641C136.389 108.14 136.494 108.516 136.704 108.768C136.919 109.02 137.246 109.146 137.684 109.146C137.857 109.146 138.046 109.118 138.251 109.062C138.457 109.001 138.639 108.908 138.797 108.782L138.895 109.797C138.802 109.867 138.676 109.93 138.517 109.986C138.359 110.037 138.184 110.077 137.992 110.105C137.801 110.138 137.605 110.154 137.404 110.154ZM133.911 103.973V103.056H138.825V103.973C138.359 103.973 137.887 103.973 137.411 103.973C136.94 103.973 136.48 103.973 136.032 103.973H135.556H133.911ZM143.285 110C143.285 109.445 143.285 108.91 143.285 108.397C143.285 107.884 143.285 107.319 143.285 106.703V103.35C143.285 102.729 143.285 102.158 143.285 101.635C143.285 101.112 143.285 100.573 143.285 100.018C143.663 100.018 144.151 100.018 144.748 100.018C145.35 100.018 146.039 100.018 146.813 100.018C147.574 100.018 148.202 100.118 148.696 100.319C149.196 100.52 149.569 100.832 149.816 101.257C150.064 101.677 150.187 102.216 150.187 102.874C150.187 103.485 150.073 104.029 149.844 104.505C149.62 104.976 149.242 105.347 148.71 105.618C148.183 105.889 147.462 106.024 146.547 106.024C146.314 106.024 146.064 106.024 145.798 106.024C145.532 106.024 145.273 106.024 145.021 106.024C144.769 106.024 144.55 106.024 144.363 106.024V104.974H146.309C146.907 104.974 147.394 104.904 147.772 104.764C148.155 104.624 148.437 104.4 148.619 104.092C148.801 103.784 148.892 103.38 148.892 102.881C148.892 102.47 148.825 102.144 148.689 101.901C148.559 101.658 148.384 101.479 148.164 101.362C147.95 101.241 147.716 101.161 147.464 101.124C147.212 101.087 146.967 101.068 146.729 101.068H143.915L144.531 100.2C144.531 100.76 144.531 101.301 144.531 101.824C144.531 102.342 144.531 102.911 144.531 103.532V106.703C144.531 107.319 144.531 107.884 144.531 108.397C144.531 108.91 144.531 109.445 144.531 110H143.285ZM154.875 110.154C154.044 110.154 153.361 109.995 152.824 109.678C152.287 109.361 151.888 108.927 151.627 108.376C151.366 107.825 151.235 107.195 151.235 106.486C151.235 105.786 151.363 105.165 151.62 104.624C151.877 104.083 152.245 103.66 152.726 103.357C153.207 103.049 153.781 102.895 154.448 102.895C155.036 102.895 155.54 103.009 155.96 103.238C156.385 103.467 156.711 103.803 156.94 104.246C157.169 104.685 157.283 105.228 157.283 105.877C157.283 106.05 157.278 106.206 157.269 106.346C157.264 106.481 157.25 106.619 157.227 106.759L156.212 106.248C156.221 106.173 156.226 106.103 156.226 106.038C156.231 105.968 156.233 105.9 156.233 105.835C156.233 105.177 156.07 104.678 155.743 104.337C155.416 103.992 154.989 103.819 154.462 103.819C154.037 103.819 153.671 103.929 153.363 104.148C153.06 104.363 152.824 104.661 152.656 105.044C152.488 105.427 152.404 105.863 152.404 106.353V106.514C152.404 107.055 152.497 107.522 152.684 107.914C152.871 108.306 153.153 108.609 153.531 108.824C153.914 109.034 154.399 109.139 154.987 109.139C155.206 109.139 155.437 109.123 155.68 109.09C155.927 109.053 156.17 108.997 156.408 108.922C156.651 108.847 156.882 108.749 157.101 108.628L157.15 109.671C156.973 109.769 156.767 109.855 156.534 109.93C156.301 110 156.044 110.054 155.764 110.091C155.484 110.133 155.188 110.154 154.875 110.154ZM151.718 106.759V105.933L156.52 105.891L157.227 106.157V106.759H151.718ZM159.122 110C159.122 109.482 159.122 108.985 159.122 108.509C159.122 108.033 159.122 107.508 159.122 106.934V106.234C159.122 105.721 159.122 105.196 159.122 104.659C159.122 104.122 159.122 103.588 159.122 103.056L160.13 102.986L160.165 104.4H160.284C160.475 103.975 160.695 103.656 160.942 103.441C161.194 103.222 161.448 103.075 161.705 103C161.962 102.925 162.197 102.888 162.412 102.888C162.543 102.888 162.673 102.897 162.804 102.916C162.935 102.935 163.058 102.965 163.175 103.007L163.07 104.169C162.916 104.141 162.776 104.118 162.65 104.099C162.529 104.08 162.386 104.071 162.223 104.071C162.088 104.071 161.934 104.092 161.761 104.134C161.593 104.171 161.418 104.253 161.236 104.379C161.059 104.5 160.886 104.685 160.718 104.932C160.55 105.175 160.403 105.499 160.277 105.905V106.983C160.277 107.529 160.277 108.04 160.277 108.516C160.277 108.987 160.277 109.482 160.277 110H159.122ZM165.169 110C165.169 109.482 165.169 108.985 165.169 108.509C165.169 108.033 165.169 107.508 165.169 106.934V106.234C165.169 105.949 165.169 105.651 165.169 105.338C165.169 105.021 165.169 104.692 165.169 104.351C165.169 104.01 165.169 103.658 165.169 103.294C165.169 102.925 165.169 102.543 165.169 102.146C165.169 101.651 165.234 101.238 165.365 100.907C165.5 100.576 165.684 100.312 165.918 100.116C166.156 99.92 166.426 99.78 166.73 99.696C167.033 99.6073 167.357 99.563 167.703 99.563C167.871 99.563 168.034 99.5723 168.193 99.591C168.351 99.605 168.496 99.626 168.627 99.654C168.762 99.682 168.876 99.7147 168.97 99.752L168.865 100.753C168.715 100.697 168.554 100.655 168.382 100.627C168.214 100.594 168.036 100.578 167.85 100.578C167.304 100.578 166.905 100.711 166.653 100.977C166.405 101.238 166.282 101.637 166.282 102.174C166.282 102.319 166.282 102.482 166.282 102.664C166.282 102.841 166.282 102.972 166.282 103.056L166.324 103.315V106.934C166.324 107.508 166.324 108.033 166.324 108.509C166.324 108.985 166.324 109.482 166.324 110H165.169ZM163.853 103.973V103.056H168.676V103.973C168.209 103.973 167.754 103.973 167.311 103.973C166.867 103.973 166.422 103.973 165.974 103.973H165.498H163.853ZM172.898 110.154C172.324 110.154 171.818 110.056 171.379 109.86C170.945 109.659 170.581 109.389 170.287 109.048C169.993 108.707 169.769 108.318 169.615 107.879C169.466 107.436 169.391 106.971 169.391 106.486C169.391 105.791 169.531 105.175 169.811 104.638C170.096 104.097 170.497 103.67 171.015 103.357C171.538 103.044 172.159 102.888 172.877 102.888C173.433 102.888 173.925 102.979 174.354 103.161C174.784 103.343 175.148 103.597 175.446 103.924C175.745 104.251 175.971 104.633 176.125 105.072C176.279 105.506 176.356 105.977 176.356 106.486C176.356 107.172 176.216 107.793 175.936 108.348C175.656 108.903 175.257 109.344 174.739 109.671C174.226 109.993 173.612 110.154 172.898 110.154ZM172.898 109.146C173.407 109.146 173.829 109.02 174.165 108.768C174.501 108.516 174.753 108.187 174.921 107.781C175.089 107.375 175.173 106.943 175.173 106.486C175.173 105.963 175.08 105.508 174.893 105.121C174.707 104.734 174.443 104.433 174.102 104.218C173.762 104.003 173.358 103.896 172.891 103.896C172.387 103.896 171.963 104.01 171.617 104.239C171.272 104.468 171.011 104.778 170.833 105.17C170.661 105.562 170.574 106.001 170.574 106.486C170.574 106.943 170.658 107.375 170.826 107.781C170.999 108.187 171.258 108.516 171.603 108.768C171.949 109.02 172.38 109.146 172.898 109.146ZM178.263 110C178.263 109.482 178.263 108.985 178.263 108.509C178.263 108.033 178.263 107.508 178.263 106.934V106.234C178.263 105.721 178.263 105.196 178.263 104.659C178.263 104.122 178.263 103.588 178.263 103.056L179.271 102.986L179.306 104.4H179.425C179.616 103.975 179.835 103.656 180.083 103.441C180.335 103.222 180.589 103.075 180.846 103C181.102 102.925 181.338 102.888 181.553 102.888C181.683 102.888 181.814 102.897 181.945 102.916C182.075 102.935 182.199 102.965 182.316 103.007L182.211 104.169C182.057 104.141 181.917 104.118 181.791 104.099C181.669 104.08 181.527 104.071 181.364 104.071C181.228 104.071 181.074 104.092 180.902 104.134C180.734 104.171 180.559 104.253 180.377 104.379C180.199 104.5 180.027 104.685 179.859 104.932C179.691 105.175 179.544 105.499 179.418 105.905V106.983C179.418 107.529 179.418 108.04 179.418 108.516C179.418 108.987 179.418 109.482 179.418 110H178.263ZM183.854 110C183.854 109.482 183.854 108.985 183.854 108.509C183.854 108.033 183.854 107.508 183.854 106.934V106.234C183.854 105.721 183.854 105.196 183.854 104.659C183.854 104.122 183.854 103.588 183.854 103.056L184.862 102.986L184.897 104.26H185.023C185.168 104.055 185.35 103.847 185.569 103.637C185.793 103.422 186.057 103.245 186.36 103.105C186.664 102.96 187.011 102.888 187.403 102.888C187.973 102.888 188.409 103.03 188.712 103.315C189.02 103.595 189.221 103.999 189.314 104.526L189.384 104.568C189.403 104.694 189.417 104.825 189.426 104.96C189.44 105.091 189.447 105.228 189.447 105.373C189.447 105.676 189.447 105.945 189.447 106.178C189.447 106.411 189.447 106.663 189.447 106.934C189.447 107.485 189.447 108.005 189.447 108.495C189.447 108.98 189.447 109.482 189.447 110H188.292C188.292 109.482 188.292 108.983 188.292 108.502C188.292 108.017 188.292 107.51 188.292 106.983V105.667C188.292 105.112 188.199 104.692 188.012 104.407C187.826 104.122 187.487 103.98 186.997 103.98C186.699 103.98 186.428 104.045 186.185 104.176C185.947 104.302 185.73 104.472 185.534 104.687C185.343 104.897 185.168 105.128 185.009 105.38V106.983C185.009 107.529 185.009 108.04 185.009 108.516C185.009 108.987 185.009 109.482 185.009 110H183.854ZM192.674 110C192.674 109.482 192.674 108.983 192.674 108.502C192.674 108.017 192.674 107.51 192.674 106.983V105.667C192.674 105.112 192.581 104.692 192.394 104.407C192.208 104.122 191.869 103.98 191.379 103.98C191.085 103.98 190.817 104.043 190.574 104.169C190.336 104.295 190.117 104.465 189.916 104.68C189.72 104.89 189.545 105.123 189.391 105.38L189.223 104.288H189.349C189.508 104.073 189.702 103.859 189.93 103.644C190.164 103.425 190.434 103.245 190.742 103.105C191.05 102.96 191.4 102.888 191.792 102.888C192.52 102.888 193.041 103.105 193.353 103.539C193.671 103.973 193.829 104.584 193.829 105.373C193.829 105.676 193.829 105.945 193.829 106.178C193.829 106.411 193.829 106.663 193.829 106.934C193.829 107.485 193.829 108.005 193.829 108.495C193.829 108.98 193.829 109.482 193.829 110H192.674Z" fill="#898998"/>
<path d="M95.407 140.216C94.291 140.216 93.319 140.039 92.491 139.685C91.669 139.331 90.985 138.845 90.439 138.227C89.899 137.609 89.494 136.901 89.224 136.103C88.954 135.305 88.819 134.462 88.819 133.574C88.819 132.332 89.068 131.21 89.566 130.208C90.07 129.2 90.805 128.402 91.771 127.814C92.743 127.22 93.934 126.923 95.344 126.923C96.412 126.923 97.351 127.094 98.161 127.436C98.977 127.778 99.658 128.255 100.204 128.867C100.756 129.473 101.17 130.178 101.446 130.982C101.722 131.786 101.86 132.65 101.86 133.574C101.86 134.84 101.608 135.974 101.104 136.976C100.6 137.978 99.865 138.77 98.899 139.352C97.939 139.928 96.775 140.216 95.407 140.216ZM95.362 138.434C96.1 138.434 96.739 138.302 97.279 138.038C97.819 137.774 98.266 137.414 98.62 136.958C98.974 136.502 99.235 135.983 99.403 135.401C99.577 134.819 99.664 134.21 99.664 133.574C99.664 132.89 99.571 132.254 99.385 131.666C99.199 131.078 98.923 130.562 98.557 130.118C98.197 129.674 97.75 129.329 97.216 129.083C96.682 128.831 96.064 128.705 95.362 128.705C94.636 128.705 94.003 128.834 93.463 129.092C92.923 129.35 92.47 129.707 92.104 130.163C91.744 130.619 91.474 131.138 91.294 131.72C91.114 132.302 91.024 132.92 91.024 133.574C91.024 134.222 91.111 134.837 91.285 135.419C91.459 136.001 91.723 136.52 92.077 136.976C92.437 137.426 92.89 137.783 93.436 138.047C93.982 138.305 94.624 138.434 95.362 138.434ZM104.207 140C104.207 139.292 104.207 138.611 104.207 137.957C104.207 137.303 104.207 136.577 104.207 135.779V131.45C104.207 130.646 104.207 129.908 104.207 129.236C104.207 128.564 104.207 127.874 104.207 127.166C104.711 127.166 105.368 127.166 106.178 127.166C106.988 127.166 107.918 127.166 108.968 127.166C109.97 127.166 110.801 127.295 111.461 127.553C112.121 127.811 112.616 128.219 112.946 128.777C113.276 129.335 113.441 130.067 113.441 130.973C113.441 131.777 113.294 132.491 113 133.115C112.706 133.739 112.22 134.228 111.542 134.582C110.864 134.936 109.949 135.113 108.797 135.113C108.503 135.113 108.185 135.113 107.843 135.113C107.507 135.113 107.177 135.113 106.853 135.113C106.529 135.113 106.25 135.113 106.016 135.113V133.394H108.356C109.034 133.394 109.589 133.313 110.021 133.151C110.453 132.989 110.771 132.731 110.975 132.377C111.185 132.023 111.29 131.561 111.29 130.991C111.29 130.523 111.215 130.151 111.065 129.875C110.915 129.593 110.717 129.383 110.471 129.245C110.231 129.101 109.964 129.005 109.67 128.957C109.382 128.909 109.1 128.885 108.824 128.885H105.269L106.295 127.49C106.295 128.198 106.295 128.888 106.295 129.56C106.295 130.226 106.295 130.964 106.295 131.774V135.779C106.295 136.577 106.295 137.303 106.295 137.957C106.295 138.611 106.295 139.292 106.295 140H104.207ZM119.275 140.216C118.507 140.216 117.835 140.087 117.259 139.829C116.683 139.571 116.2 139.223 115.81 138.785C115.426 138.341 115.138 137.837 114.946 137.273C114.754 136.703 114.658 136.106 114.658 135.482C114.658 134.588 114.838 133.793 115.198 133.097C115.558 132.395 116.08 131.843 116.764 131.441C117.448 131.033 118.273 130.829 119.239 130.829C119.977 130.829 120.631 130.946 121.201 131.18C121.771 131.414 122.248 131.744 122.632 132.17C123.022 132.59 123.316 133.082 123.514 133.646C123.712 134.21 123.811 134.822 123.811 135.482C123.811 136.376 123.631 137.18 123.271 137.894C122.911 138.608 122.389 139.175 121.705 139.595C121.027 140.009 120.217 140.216 119.275 140.216ZM119.266 138.596C119.842 138.596 120.322 138.449 120.706 138.155C121.09 137.855 121.375 137.468 121.561 136.994C121.753 136.52 121.849 136.016 121.849 135.482C121.849 134.864 121.741 134.33 121.525 133.88C121.315 133.424 121.015 133.073 120.625 132.827C120.241 132.575 119.785 132.449 119.257 132.449C118.687 132.449 118.204 132.584 117.808 132.854C117.418 133.118 117.121 133.481 116.917 133.943C116.719 134.399 116.62 134.912 116.62 135.482C116.62 136.016 116.716 136.52 116.908 136.994C117.106 137.468 117.4 137.855 117.79 138.155C118.186 138.449 118.678 138.596 119.266 138.596ZM129.169 140.216C128.329 140.216 127.63 139.997 127.072 139.559C126.52 139.121 126.106 138.545 125.83 137.831C125.56 137.111 125.425 136.334 125.425 135.5C125.425 134.618 125.569 133.823 125.857 133.115C126.151 132.407 126.58 131.849 127.144 131.441C127.708 131.033 128.392 130.829 129.196 130.829C129.586 130.829 129.946 130.88 130.276 130.982C130.606 131.084 130.897 131.225 131.149 131.405C131.401 131.585 131.611 131.789 131.779 132.017H131.959V131.117C131.959 130.367 131.959 129.638 131.959 128.93C131.959 128.216 131.959 127.514 131.959 126.824L133.885 126.617C133.885 127.337 133.885 128.066 133.885 128.804C133.885 129.536 133.885 130.307 133.885 131.117V136.076C133.885 136.814 133.885 137.489 133.885 138.101C133.885 138.713 133.885 139.346 133.885 140H132.229L132.121 138.794H131.959C131.731 139.1 131.476 139.358 131.194 139.568C130.918 139.778 130.612 139.937 130.276 140.045C129.94 140.159 129.571 140.216 129.169 140.216ZM129.826 138.533C130.15 138.533 130.444 138.482 130.708 138.38C130.972 138.272 131.206 138.122 131.41 137.93C131.62 137.738 131.803 137.51 131.959 137.246V133.61C131.797 133.37 131.605 133.172 131.383 133.016C131.161 132.854 130.918 132.734 130.654 132.656C130.39 132.572 130.12 132.53 129.844 132.53C129.292 132.53 128.836 132.665 128.476 132.935C128.116 133.205 127.846 133.568 127.666 134.024C127.486 134.474 127.396 134.972 127.396 135.518C127.396 136.04 127.48 136.532 127.648 136.994C127.822 137.45 128.086 137.822 128.44 138.11C128.8 138.392 129.262 138.533 129.826 138.533ZM140.475 140.18C139.491 140.18 138.654 139.979 137.964 139.577C137.28 139.169 136.758 138.614 136.398 137.912C136.038 137.21 135.858 136.415 135.858 135.527C135.858 134.633 136.026 133.832 136.362 133.124C136.704 132.416 137.205 131.858 137.865 131.45C138.531 131.042 139.347 130.838 140.313 130.838C140.661 130.838 141.006 130.868 141.348 130.928C141.696 130.982 142.023 131.06 142.329 131.162C142.635 131.258 142.905 131.372 143.139 131.504L142.977 133.214C142.641 133.022 142.326 132.875 142.032 132.773C141.744 132.671 141.477 132.602 141.231 132.566C140.985 132.524 140.76 132.503 140.556 132.503C139.728 132.503 139.065 132.773 138.567 133.313C138.069 133.847 137.82 134.57 137.82 135.482C137.82 136.07 137.934 136.595 138.162 137.057C138.39 137.519 138.729 137.885 139.179 138.155C139.635 138.425 140.199 138.56 140.871 138.56C141.117 138.56 141.363 138.539 141.609 138.497C141.855 138.449 142.095 138.38 142.329 138.29C142.569 138.194 142.8 138.074 143.022 137.93L143.157 139.649C142.953 139.745 142.719 139.835 142.455 139.919C142.191 139.997 141.894 140.06 141.564 140.108C141.234 140.156 140.871 140.18 140.475 140.18ZM147.408 140.189C146.898 140.189 146.442 140.087 146.04 139.883C145.638 139.673 145.32 139.373 145.086 138.983C144.858 138.587 144.744 138.107 144.744 137.543C144.744 137.045 144.828 136.628 144.996 136.292C145.17 135.95 145.398 135.671 145.68 135.455C145.962 135.239 146.277 135.071 146.625 134.951C146.973 134.831 147.324 134.744 147.678 134.69L150.333 134.276C150.357 133.778 150.282 133.397 150.108 133.133C149.94 132.869 149.7 132.689 149.388 132.593C149.082 132.497 148.734 132.449 148.344 132.449C148.14 132.449 147.918 132.464 147.678 132.494C147.444 132.524 147.195 132.575 146.931 132.647C146.673 132.713 146.4 132.797 146.112 132.899C145.83 132.995 145.539 133.112 145.239 133.25L145.131 131.54C145.353 131.45 145.602 131.363 145.878 131.279C146.154 131.195 146.451 131.12 146.769 131.054C147.093 130.982 147.426 130.928 147.768 130.892C148.11 130.856 148.458 130.838 148.812 130.838C149.52 130.838 150.126 130.943 150.63 131.153C151.134 131.363 151.521 131.699 151.791 132.161C152.061 132.617 152.196 133.211 152.196 133.943C152.196 134.231 152.196 134.588 152.196 135.014C152.196 135.44 152.196 135.836 152.196 136.202V137.282C152.196 137.708 152.196 138.14 152.196 138.578C152.196 139.016 152.196 139.49 152.196 140H150.459L150.351 138.812H150.18C150.006 139.034 149.787 139.25 149.523 139.46C149.265 139.67 148.956 139.844 148.596 139.982C148.242 140.12 147.846 140.189 147.408 140.189ZM148.038 138.659C148.326 138.659 148.608 138.596 148.884 138.47C149.166 138.338 149.427 138.152 149.667 137.912C149.907 137.672 150.114 137.381 150.288 137.039V135.455C150.198 135.509 150.081 135.56 149.937 135.608C149.799 135.656 149.589 135.71 149.307 135.77C149.025 135.83 148.629 135.905 148.119 135.995C147.825 136.043 147.573 136.13 147.363 136.256C147.153 136.382 146.988 136.547 146.868 136.751C146.754 136.949 146.697 137.186 146.697 137.462C146.697 137.9 146.829 138.209 147.093 138.389C147.363 138.569 147.678 138.659 148.038 138.659ZM157.414 140.207C157.024 140.207 156.637 140.18 156.253 140.126C155.875 140.072 155.518 139.997 155.182 139.901C154.852 139.799 154.561 139.688 154.309 139.568L154.453 137.822C154.723 137.978 155.017 138.116 155.335 138.236C155.653 138.35 155.983 138.44 156.325 138.506C156.673 138.566 157.021 138.596 157.369 138.596C157.657 138.596 157.921 138.569 158.161 138.515C158.407 138.455 158.602 138.344 158.746 138.182C158.896 138.02 158.971 137.78 158.971 137.462C158.971 137.252 158.902 137.078 158.764 136.94C158.626 136.802 158.401 136.679 158.089 136.571C157.777 136.457 157.351 136.325 156.811 136.175C156.313 136.043 155.878 135.878 155.506 135.68C155.14 135.482 154.855 135.218 154.651 134.888C154.447 134.558 154.345 134.123 154.345 133.583C154.345 132.713 154.624 132.038 155.182 131.558C155.74 131.078 156.487 130.838 157.423 130.838C157.819 130.838 158.203 130.871 158.575 130.937C158.947 130.997 159.286 131.078 159.592 131.18C159.904 131.276 160.168 131.378 160.384 131.486L160.231 133.232C159.955 133.058 159.655 132.914 159.331 132.8C159.013 132.68 158.707 132.593 158.413 132.539C158.119 132.479 157.87 132.449 157.666 132.449C157.432 132.449 157.21 132.482 157 132.548C156.796 132.608 156.631 132.716 156.505 132.872C156.379 133.022 156.316 133.226 156.316 133.484C156.316 133.688 156.364 133.862 156.46 134.006C156.556 134.15 156.73 134.282 156.982 134.402C157.24 134.522 157.612 134.648 158.098 134.78C158.704 134.954 159.217 135.137 159.637 135.329C160.063 135.521 160.384 135.773 160.6 136.085C160.816 136.397 160.924 136.829 160.924 137.381C160.924 137.933 160.804 138.422 160.564 138.848C160.324 139.274 159.946 139.607 159.43 139.847C158.914 140.087 158.242 140.207 157.414 140.207ZM166.496 140.216C165.878 140.216 165.35 140.114 164.912 139.91C164.48 139.706 164.15 139.388 163.922 138.956C163.7 138.524 163.589 137.966 163.589 137.282C163.589 136.808 163.589 136.334 163.589 135.86C163.589 135.38 163.589 134.903 163.589 134.429C163.589 133.949 163.589 133.472 163.589 132.998C163.589 132.524 163.589 132.05 163.589 131.576C163.589 130.94 163.589 130.352 163.589 129.812C163.589 129.272 163.589 128.717 163.589 128.147L165.488 127.769C165.488 128.225 165.488 128.648 165.488 129.038C165.488 129.428 165.488 129.827 165.488 130.235C165.488 130.637 165.488 131.084 165.488 131.576V136.751C165.488 137.363 165.611 137.825 165.857 138.137C166.103 138.443 166.487 138.596 167.009 138.596C167.225 138.596 167.456 138.56 167.702 138.488C167.954 138.41 168.185 138.293 168.395 138.137L168.53 139.757C168.392 139.847 168.215 139.928 167.999 140C167.789 140.066 167.552 140.117 167.288 140.153C167.03 140.195 166.766 140.216 166.496 140.216ZM161.96 132.539V131.054H168.458V132.539C167.87 132.539 167.279 132.539 166.685 132.539C166.091 132.539 165.512 132.539 164.948 132.539H164.129H161.96Z" fill="#13132C"/>
<circle cx="48" cy="120" r="24" fill="#FFF7EC"/>
<path d="M48 108L48.6587 113.312L50.3411 108.231L49.9507 113.569L52.5922 108.913L51.1678 114.073L54.6668 110.022L52.2631 114.805L56.4853 111.515L53.1946 115.737L57.9776 113.333L53.9265 116.832L59.0866 115.408L54.4306 118.049L59.7694 117.659L54.6876 119.341L60 120L54.6876 120.659L59.7694 122.341L54.4306 121.951L59.0866 124.592L53.9265 123.168L57.9776 126.667L53.1946 124.263L56.4853 128.485L52.2631 125.195L54.6668 129.978L51.1678 125.927L52.5922 131.087L49.9507 126.431L50.3411 131.769L48.6587 126.688L48 132L47.3413 126.688L45.6589 131.769L46.0493 126.431L43.4078 131.087L44.8322 125.927L41.3332 129.978L43.7369 125.195L39.5147 128.485L42.8054 124.263L38.0224 126.667L42.0735 123.168L36.9134 124.592L41.5694 121.951L36.2306 122.341L41.3124 120.659L36 120L41.3124 119.341L36.2306 117.659L41.5694 118.049L36.9134 115.408L42.0735 116.832L38.0224 113.333L42.8054 115.737L39.5147 111.515L43.7369 114.805L41.3332 110.022L44.8322 114.073L43.4078 108.913L46.0493 113.569L45.6589 108.231L47.3413 113.312L48 108Z" fill="#F18701"/>
<path d="M89.295 182C89.295 181.445 89.295 180.91 89.295 180.397C89.295 179.884 89.295 179.319 89.295 178.703V175.35C89.295 174.729 89.295 174.158 89.295 173.635C89.295 173.112 89.295 172.573 89.295 172.018C89.673 172.018 90.1607 172.018 90.758 172.018C91.36 172.018 92.0483 172.018 92.823 172.018C93.5837 172.018 94.2113 172.118 94.706 172.319C95.2053 172.52 95.5787 172.832 95.826 173.257C96.0733 173.677 96.197 174.216 96.197 174.874C96.197 175.485 96.0827 176.029 95.854 176.505C95.63 176.976 95.252 177.347 94.72 177.618C94.1927 177.889 93.4717 178.024 92.557 178.024C92.3237 178.024 92.074 178.024 91.808 178.024C91.542 178.024 91.283 178.024 91.031 178.024C90.779 178.024 90.5597 178.024 90.373 178.024V176.974H92.319C92.9163 176.974 93.404 176.904 93.782 176.764C94.1647 176.624 94.447 176.4 94.629 176.092C94.811 175.784 94.902 175.38 94.902 174.881C94.902 174.47 94.8343 174.144 94.699 173.901C94.5683 173.658 94.3933 173.479 94.174 173.362C93.9593 173.241 93.726 173.161 93.474 173.124C93.222 173.087 92.977 173.068 92.739 173.068H89.925L90.541 172.2C90.541 172.76 90.541 173.301 90.541 173.824C90.541 174.342 90.541 174.911 90.541 175.532V178.703C90.541 179.319 90.541 179.884 90.541 180.397C90.541 180.91 90.541 181.445 90.541 182H89.295ZM100.752 182.154C100.178 182.154 99.6716 182.056 99.2329 181.86C98.7989 181.659 98.4349 181.389 98.1409 181.048C97.8469 180.707 97.6229 180.318 97.4689 179.879C97.3196 179.436 97.2449 178.971 97.2449 178.486C97.2449 177.791 97.3849 177.175 97.6649 176.638C97.9496 176.097 98.3509 175.67 98.8689 175.357C99.3916 175.044 100.012 174.888 100.731 174.888C101.286 174.888 101.779 174.979 102.208 175.161C102.637 175.343 103.001 175.597 103.3 175.924C103.599 176.251 103.825 176.633 103.979 177.072C104.133 177.506 104.21 177.977 104.21 178.486C104.21 179.172 104.07 179.793 103.79 180.348C103.51 180.903 103.111 181.344 102.593 181.671C102.08 181.993 101.466 182.154 100.752 182.154ZM100.752 181.146C101.261 181.146 101.683 181.02 102.019 180.768C102.355 180.516 102.607 180.187 102.775 179.781C102.943 179.375 103.027 178.943 103.027 178.486C103.027 177.963 102.934 177.508 102.747 177.121C102.56 176.734 102.297 176.433 101.956 176.218C101.615 176.003 101.212 175.896 100.745 175.896C100.241 175.896 99.8163 176.01 99.4709 176.239C99.1256 176.468 98.8643 176.778 98.6869 177.17C98.5143 177.562 98.4279 178.001 98.4279 178.486C98.4279 178.943 98.5119 179.375 98.6799 179.781C98.8526 180.187 99.1116 180.516 99.4569 180.768C99.8023 181.02 100.234 181.146 100.752 181.146ZM108.587 182.154C107.924 182.154 107.374 181.986 106.935 181.65C106.496 181.309 106.167 180.864 105.948 180.313C105.729 179.758 105.619 179.156 105.619 178.507C105.619 177.816 105.736 177.198 105.969 176.652C106.202 176.106 106.541 175.677 106.984 175.364C107.432 175.047 107.973 174.888 108.608 174.888C108.93 174.888 109.224 174.932 109.49 175.021C109.761 175.105 109.999 175.219 110.204 175.364C110.409 175.504 110.58 175.66 110.715 175.833H110.834V175.091C110.834 174.503 110.834 173.934 110.834 173.383C110.834 172.828 110.834 172.284 110.834 171.752L111.989 171.612C111.989 172.177 111.989 172.744 111.989 173.313C111.989 173.878 111.989 174.47 111.989 175.091V178.934C111.989 179.508 111.989 180.033 111.989 180.509C111.989 180.985 111.989 181.482 111.989 182H110.981L110.925 181.048H110.813C110.631 181.286 110.428 181.487 110.204 181.65C109.98 181.813 109.733 181.937 109.462 182.021C109.196 182.11 108.904 182.154 108.587 182.154ZM108.937 181.118C109.226 181.118 109.488 181.074 109.721 180.985C109.954 180.892 110.162 180.761 110.344 180.593C110.531 180.425 110.694 180.222 110.834 179.984V176.897C110.689 176.687 110.517 176.512 110.316 176.372C110.12 176.227 109.905 176.12 109.672 176.05C109.439 175.975 109.201 175.938 108.958 175.938C108.468 175.938 108.064 176.055 107.747 176.288C107.43 176.521 107.192 176.834 107.033 177.226C106.879 177.613 106.802 178.043 106.802 178.514C106.802 178.967 106.877 179.391 107.026 179.788C107.175 180.18 107.406 180.5 107.719 180.747C108.032 180.994 108.438 181.118 108.937 181.118ZM117.22 182.14C116.469 182.14 115.83 181.981 115.302 181.664C114.78 181.347 114.381 180.915 114.105 180.369C113.83 179.823 113.692 179.207 113.692 178.521C113.692 177.835 113.823 177.219 114.084 176.673C114.35 176.122 114.735 175.688 115.239 175.371C115.748 175.054 116.366 174.895 117.094 174.895C117.365 174.895 117.631 174.918 117.892 174.965C118.158 175.012 118.408 175.075 118.641 175.154C118.875 175.229 119.082 175.317 119.264 175.42L119.159 176.484C118.898 176.335 118.651 176.22 118.417 176.141C118.189 176.057 117.974 176.001 117.773 175.973C117.577 175.94 117.395 175.924 117.227 175.924C116.518 175.924 115.949 176.157 115.519 176.624C115.09 177.086 114.875 177.711 114.875 178.5C114.875 178.995 114.969 179.443 115.155 179.844C115.347 180.241 115.631 180.556 116.009 180.789C116.392 181.018 116.866 181.132 117.43 181.132C117.631 181.132 117.829 181.113 118.025 181.076C118.226 181.039 118.424 180.985 118.62 180.915C118.816 180.84 119.005 180.745 119.187 180.628L119.285 181.685C119.131 181.769 118.952 181.846 118.746 181.916C118.541 181.981 118.31 182.035 118.053 182.077C117.801 182.119 117.524 182.14 117.22 182.14ZM122.738 182.14C122.323 182.14 121.959 182.061 121.646 181.902C121.333 181.739 121.088 181.508 120.911 181.209C120.738 180.91 120.652 180.551 120.652 180.131C120.652 179.753 120.72 179.436 120.855 179.179C120.99 178.918 121.168 178.705 121.387 178.542C121.606 178.379 121.849 178.253 122.115 178.164C122.381 178.071 122.647 178.001 122.913 177.954L125.09 177.576C125.109 177.105 125.046 176.75 124.901 176.512C124.761 176.269 124.563 176.106 124.306 176.022C124.049 175.938 123.765 175.896 123.452 175.896C123.293 175.896 123.123 175.908 122.941 175.931C122.759 175.954 122.565 175.992 122.36 176.043C122.159 176.09 121.947 176.15 121.723 176.225C121.499 176.3 121.263 176.391 121.016 176.498L120.953 175.441C121.121 175.371 121.31 175.303 121.52 175.238C121.735 175.173 121.961 175.114 122.199 175.063C122.442 175.007 122.689 174.965 122.941 174.937C123.193 174.909 123.447 174.895 123.704 174.895C124.222 174.895 124.668 174.977 125.041 175.14C125.419 175.303 125.708 175.56 125.909 175.91C126.11 176.26 126.21 176.717 126.21 177.282C126.21 177.497 126.21 177.77 126.21 178.101C126.21 178.432 126.21 178.747 126.21 179.046V179.949C126.21 180.266 126.21 180.591 126.21 180.922C126.21 181.249 126.21 181.608 126.21 182H125.16L125.097 181.013H124.985C124.84 181.2 124.658 181.379 124.439 181.552C124.22 181.725 123.965 181.867 123.676 181.979C123.391 182.086 123.079 182.14 122.738 182.14ZM123.074 181.181C123.321 181.181 123.569 181.13 123.816 181.027C124.063 180.924 124.294 180.773 124.509 180.572C124.728 180.367 124.913 180.11 125.062 179.802L125.069 178.304C124.994 178.346 124.894 178.388 124.768 178.43C124.647 178.472 124.462 178.521 124.215 178.577C123.972 178.628 123.634 178.694 123.2 178.773C122.934 178.82 122.698 178.897 122.493 179.004C122.288 179.107 122.124 179.249 122.003 179.431C121.886 179.608 121.828 179.825 121.828 180.082C121.828 180.483 121.947 180.768 122.185 180.936C122.428 181.099 122.724 181.181 123.074 181.181ZM130.402 182.154C130.113 182.154 129.821 182.131 129.527 182.084C129.238 182.037 128.965 181.977 128.708 181.902C128.452 181.823 128.228 181.734 128.036 181.636L128.127 180.551C128.342 180.672 128.571 180.78 128.813 180.873C129.061 180.962 129.315 181.032 129.576 181.083C129.842 181.13 130.108 181.153 130.374 181.153C130.631 181.153 130.867 181.125 131.081 181.069C131.301 181.008 131.473 180.901 131.599 180.747C131.73 180.588 131.795 180.36 131.795 180.061C131.795 179.865 131.739 179.704 131.627 179.578C131.515 179.452 131.326 179.338 131.06 179.235C130.799 179.132 130.444 179.018 129.996 178.892C129.628 178.789 129.299 178.663 129.009 178.514C128.72 178.365 128.491 178.164 128.323 177.912C128.16 177.66 128.078 177.331 128.078 176.925C128.078 176.295 128.284 175.8 128.694 175.441C129.11 175.077 129.667 174.895 130.367 174.895C130.657 174.895 130.937 174.921 131.207 174.972C131.478 175.019 131.728 175.082 131.956 175.161C132.185 175.24 132.383 175.324 132.551 175.413L132.453 176.498C132.229 176.358 131.998 176.244 131.76 176.155C131.522 176.062 131.294 175.996 131.074 175.959C130.855 175.917 130.661 175.896 130.493 175.896C130.302 175.896 130.111 175.924 129.919 175.98C129.733 176.031 129.576 176.129 129.45 176.274C129.324 176.414 129.261 176.617 129.261 176.883C129.261 177.074 129.306 177.235 129.394 177.366C129.483 177.497 129.637 177.613 129.856 177.716C130.076 177.819 130.379 177.926 130.766 178.038C131.228 178.173 131.623 178.316 131.949 178.465C132.281 178.61 132.535 178.801 132.712 179.039C132.89 179.277 132.978 179.606 132.978 180.026C132.978 180.432 132.89 180.796 132.712 181.118C132.535 181.435 132.257 181.687 131.879 181.874C131.501 182.061 131.009 182.154 130.402 182.154ZM137.404 182.154C136.942 182.154 136.55 182.075 136.228 181.916C135.906 181.753 135.661 181.508 135.493 181.181C135.33 180.85 135.248 180.427 135.248 179.914C135.248 179.508 135.248 179.107 135.248 178.71C135.248 178.309 135.248 177.917 135.248 177.534C135.248 177.147 135.248 176.776 135.248 176.421C135.248 176.062 135.248 175.719 135.248 175.392C135.248 174.916 135.248 174.475 135.248 174.069C135.248 173.663 135.248 173.241 135.248 172.802L136.389 172.55C136.389 172.895 136.389 173.215 136.389 173.509C136.389 173.803 136.389 174.099 136.389 174.398C136.389 174.697 136.389 175.028 136.389 175.392V179.641C136.389 180.14 136.494 180.516 136.704 180.768C136.919 181.02 137.246 181.146 137.684 181.146C137.857 181.146 138.046 181.118 138.251 181.062C138.457 181.001 138.639 180.908 138.797 180.782L138.895 181.797C138.802 181.867 138.676 181.93 138.517 181.986C138.359 182.037 138.184 182.077 137.992 182.105C137.801 182.138 137.605 182.154 137.404 182.154ZM133.911 175.973V175.056H138.825V175.973C138.359 175.973 137.887 175.973 137.411 175.973C136.94 175.973 136.48 175.973 136.032 175.973H135.556H133.911ZM143.285 182C143.285 181.445 143.285 180.91 143.285 180.397C143.285 179.884 143.285 179.319 143.285 178.703V175.35C143.285 174.729 143.285 174.158 143.285 173.635C143.285 173.112 143.285 172.573 143.285 172.018C143.663 172.018 144.151 172.018 144.748 172.018C145.35 172.018 146.039 172.018 146.813 172.018C147.574 172.018 148.202 172.118 148.696 172.319C149.196 172.52 149.569 172.832 149.816 173.257C150.064 173.677 150.187 174.216 150.187 174.874C150.187 175.485 150.073 176.029 149.844 176.505C149.62 176.976 149.242 177.347 148.71 177.618C148.183 177.889 147.462 178.024 146.547 178.024C146.314 178.024 146.064 178.024 145.798 178.024C145.532 178.024 145.273 178.024 145.021 178.024C144.769 178.024 144.55 178.024 144.363 178.024V176.974H146.309C146.907 176.974 147.394 176.904 147.772 176.764C148.155 176.624 148.437 176.4 148.619 176.092C148.801 175.784 148.892 175.38 148.892 174.881C148.892 174.47 148.825 174.144 148.689 173.901C148.559 173.658 148.384 173.479 148.164 173.362C147.95 173.241 147.716 173.161 147.464 173.124C147.212 173.087 146.967 173.068 146.729 173.068H143.915L144.531 172.2C144.531 172.76 144.531 173.301 144.531 173.824C144.531 174.342 144.531 174.911 144.531 175.532V178.703C144.531 179.319 144.531 179.884 144.531 180.397C144.531 180.91 144.531 181.445 144.531 182H143.285ZM154.875 182.154C154.044 182.154 153.361 181.995 152.824 181.678C152.287 181.361 151.888 180.927 151.627 180.376C151.366 179.825 151.235 179.195 151.235 178.486C151.235 177.786 151.363 177.165 151.62 176.624C151.877 176.083 152.245 175.66 152.726 175.357C153.207 175.049 153.781 174.895 154.448 174.895C155.036 174.895 155.54 175.009 155.96 175.238C156.385 175.467 156.711 175.803 156.94 176.246C157.169 176.685 157.283 177.228 157.283 177.877C157.283 178.05 157.278 178.206 157.269 178.346C157.264 178.481 157.25 178.619 157.227 178.759L156.212 178.248C156.221 178.173 156.226 178.103 156.226 178.038C156.231 177.968 156.233 177.9 156.233 177.835C156.233 177.177 156.07 176.678 155.743 176.337C155.416 175.992 154.989 175.819 154.462 175.819C154.037 175.819 153.671 175.929 153.363 176.148C153.06 176.363 152.824 176.661 152.656 177.044C152.488 177.427 152.404 177.863 152.404 178.353V178.514C152.404 179.055 152.497 179.522 152.684 179.914C152.871 180.306 153.153 180.609 153.531 180.824C153.914 181.034 154.399 181.139 154.987 181.139C155.206 181.139 155.437 181.123 155.68 181.09C155.927 181.053 156.17 180.997 156.408 180.922C156.651 180.847 156.882 180.749 157.101 180.628L157.15 181.671C156.973 181.769 156.767 181.855 156.534 181.93C156.301 182 156.044 182.054 155.764 182.091C155.484 182.133 155.188 182.154 154.875 182.154ZM151.718 178.759V177.933L156.52 177.891L157.227 178.157V178.759H151.718ZM159.122 182C159.122 181.482 159.122 180.985 159.122 180.509C159.122 180.033 159.122 179.508 159.122 178.934V178.234C159.122 177.721 159.122 177.196 159.122 176.659C159.122 176.122 159.122 175.588 159.122 175.056L160.13 174.986L160.165 176.4H160.284C160.475 175.975 160.695 175.656 160.942 175.441C161.194 175.222 161.448 175.075 161.705 175C161.962 174.925 162.197 174.888 162.412 174.888C162.543 174.888 162.673 174.897 162.804 174.916C162.935 174.935 163.058 174.965 163.175 175.007L163.07 176.169C162.916 176.141 162.776 176.118 162.65 176.099C162.529 176.08 162.386 176.071 162.223 176.071C162.088 176.071 161.934 176.092 161.761 176.134C161.593 176.171 161.418 176.253 161.236 176.379C161.059 176.5 160.886 176.685 160.718 176.932C160.55 177.175 160.403 177.499 160.277 177.905V178.983C160.277 179.529 160.277 180.04 160.277 180.516C160.277 180.987 160.277 181.482 160.277 182H159.122ZM165.169 182C165.169 181.482 165.169 180.985 165.169 180.509C165.169 180.033 165.169 179.508 165.169 178.934V178.234C165.169 177.949 165.169 177.651 165.169 177.338C165.169 177.021 165.169 176.692 165.169 176.351C165.169 176.01 165.169 175.658 165.169 175.294C165.169 174.925 165.169 174.543 165.169 174.146C165.169 173.651 165.234 173.238 165.365 172.907C165.5 172.576 165.684 172.312 165.918 172.116C166.156 171.92 166.426 171.78 166.73 171.696C167.033 171.607 167.357 171.563 167.703 171.563C167.871 171.563 168.034 171.572 168.193 171.591C168.351 171.605 168.496 171.626 168.627 171.654C168.762 171.682 168.876 171.715 168.97 171.752L168.865 172.753C168.715 172.697 168.554 172.655 168.382 172.627C168.214 172.594 168.036 172.578 167.85 172.578C167.304 172.578 166.905 172.711 166.653 172.977C166.405 173.238 166.282 173.637 166.282 174.174C166.282 174.319 166.282 174.482 166.282 174.664C166.282 174.841 166.282 174.972 166.282 175.056L166.324 175.315V178.934C166.324 179.508 166.324 180.033 166.324 180.509C166.324 180.985 166.324 181.482 166.324 182H165.169ZM163.853 175.973V175.056H168.676V175.973C168.209 175.973 167.754 175.973 167.311 175.973C166.867 175.973 166.422 175.973 165.974 175.973H165.498H163.853ZM172.898 182.154C172.324 182.154 171.818 182.056 171.379 181.86C170.945 181.659 170.581 181.389 170.287 181.048C169.993 180.707 169.769 180.318 169.615 179.879C169.466 179.436 169.391 178.971 169.391 178.486C169.391 177.791 169.531 177.175 169.811 176.638C170.096 176.097 170.497 175.67 171.015 175.357C171.538 175.044 172.159 174.888 172.877 174.888C173.433 174.888 173.925 174.979 174.354 175.161C174.784 175.343 175.148 175.597 175.446 175.924C175.745 176.251 175.971 176.633 176.125 177.072C176.279 177.506 176.356 177.977 176.356 178.486C176.356 179.172 176.216 179.793 175.936 180.348C175.656 180.903 175.257 181.344 174.739 181.671C174.226 181.993 173.612 182.154 172.898 182.154ZM172.898 181.146C173.407 181.146 173.829 181.02 174.165 180.768C174.501 180.516 174.753 180.187 174.921 179.781C175.089 179.375 175.173 178.943 175.173 178.486C175.173 177.963 175.08 177.508 174.893 177.121C174.707 176.734 174.443 176.433 174.102 176.218C173.762 176.003 173.358 175.896 172.891 175.896C172.387 175.896 171.963 176.01 171.617 176.239C171.272 176.468 171.011 176.778 170.833 177.17C170.661 177.562 170.574 178.001 170.574 178.486C170.574 178.943 170.658 179.375 170.826 179.781C170.999 180.187 171.258 180.516 171.603 180.768C171.949 181.02 172.38 181.146 172.898 181.146ZM178.263 182C178.263 181.482 178.263 180.985 178.263 180.509C178.263 180.033 178.263 179.508 178.263 178.934V178.234C178.263 177.721 178.263 177.196 178.263 176.659C178.263 176.122 178.263 175.588 178.263 175.056L179.271 174.986L179.306 176.4H179.425C179.616 175.975 179.835 175.656 180.083 175.441C180.335 175.222 180.589 175.075 180.846 175C181.102 174.925 181.338 174.888 181.553 174.888C181.683 174.888 181.814 174.897 181.945 174.916C182.075 174.935 182.199 174.965 182.316 175.007L182.211 176.169C182.057 176.141 181.917 176.118 181.791 176.099C181.669 176.08 181.527 176.071 181.364 176.071C181.228 176.071 181.074 176.092 180.902 176.134C180.734 176.171 180.559 176.253 180.377 176.379C180.199 176.5 180.027 176.685 179.859 176.932C179.691 177.175 179.544 177.499 179.418 177.905V178.983C179.418 179.529 179.418 180.04 179.418 180.516C179.418 180.987 179.418 181.482 179.418 182H178.263ZM183.854 182C183.854 181.482 183.854 180.985 183.854 180.509C183.854 180.033 183.854 179.508 183.854 178.934V178.234C183.854 177.721 183.854 177.196 183.854 176.659C183.854 176.122 183.854 175.588 183.854 175.056L184.862 174.986L184.897 176.26H185.023C185.168 176.055 185.35 175.847 185.569 175.637C185.793 175.422 186.057 175.245 186.36 175.105C186.664 174.96 187.011 174.888 187.403 174.888C187.973 174.888 188.409 175.03 188.712 175.315C189.02 175.595 189.221 175.999 189.314 176.526L189.384 176.568C189.403 176.694 189.417 176.825 189.426 176.96C189.44 177.091 189.447 177.228 189.447 177.373C189.447 177.676 189.447 177.945 189.447 178.178C189.447 178.411 189.447 178.663 189.447 178.934C189.447 179.485 189.447 180.005 189.447 180.495C189.447 180.98 189.447 181.482 189.447 182H188.292C188.292 181.482 188.292 180.983 188.292 180.502C188.292 180.017 188.292 179.51 188.292 178.983V177.667C188.292 177.112 188.199 176.692 188.012 176.407C187.826 176.122 187.487 175.98 186.997 175.98C186.699 175.98 186.428 176.045 186.185 176.176C185.947 176.302 185.73 176.472 185.534 176.687C185.343 176.897 185.168 177.128 185.009 177.38V178.983C185.009 179.529 185.009 180.04 185.009 180.516C185.009 180.987 185.009 181.482 185.009 182H183.854ZM192.674 182C192.674 181.482 192.674 180.983 192.674 180.502C192.674 180.017 192.674 179.51 192.674 178.983V177.667C192.674 177.112 192.581 176.692 192.394 176.407C192.208 176.122 191.869 175.98 191.379 175.98C191.085 175.98 190.817 176.043 190.574 176.169C190.336 176.295 190.117 176.465 189.916 176.68C189.72 176.89 189.545 177.123 189.391 177.38L189.223 176.288H189.349C189.508 176.073 189.702 175.859 189.93 175.644C190.164 175.425 190.434 175.245 190.742 175.105C191.05 174.96 191.4 174.888 191.792 174.888C192.52 174.888 193.041 175.105 193.353 175.539C193.671 175.973 193.829 176.584 193.829 177.373C193.829 177.676 193.829 177.945 193.829 178.178C193.829 178.411 193.829 178.663 193.829 178.934C193.829 179.485 193.829 180.005 193.829 180.495C193.829 180.98 193.829 181.482 193.829 182H192.674Z" fill="#898998"/>
<path d="M99.358 215.069C98.986 214.745 98.614 214.427 98.242 214.115C97.87 213.803 97.504 213.491 97.144 213.179L95.722 211.973L96.874 210.785L98.719 212.234C99.121 212.552 99.52 212.867 99.916 213.179C100.318 213.491 100.756 213.836 101.23 214.214L99.358 215.069ZM95.407 212.216C94.291 212.216 93.319 212.039 92.491 211.685C91.669 211.331 90.985 210.845 90.439 210.227C89.899 209.609 89.494 208.901 89.224 208.103C88.954 207.305 88.819 206.462 88.819 205.574C88.819 204.332 89.068 203.21 89.566 202.208C90.07 201.2 90.805 200.402 91.771 199.814C92.743 199.22 93.934 198.923 95.344 198.923C96.412 198.923 97.351 199.094 98.161 199.436C98.977 199.778 99.658 200.255 100.204 200.867C100.756 201.473 101.17 202.178 101.446 202.982C101.722 203.786 101.86 204.65 101.86 205.574C101.86 206.84 101.608 207.974 101.104 208.976C100.6 209.978 99.865 210.77 98.899 211.352C97.939 211.928 96.775 212.216 95.407 212.216ZM95.362 210.434C96.1 210.434 96.739 210.302 97.279 210.038C97.819 209.774 98.266 209.414 98.62 208.958C98.974 208.502 99.235 207.983 99.403 207.401C99.577 206.819 99.664 206.21 99.664 205.574C99.664 204.89 99.571 204.254 99.385 203.666C99.199 203.078 98.923 202.562 98.557 202.118C98.197 201.674 97.75 201.329 97.216 201.083C96.682 200.831 96.064 200.705 95.362 200.705C94.636 200.705 94.003 200.834 93.463 201.092C92.923 201.35 92.47 201.707 92.104 202.163C91.744 202.619 91.474 203.138 91.294 203.72C91.114 204.302 91.024 204.92 91.024 205.574C91.024 206.222 91.111 206.837 91.285 207.419C91.459 208.001 91.723 208.52 92.077 208.976C92.437 209.426 92.89 209.783 93.436 210.047C93.982 210.305 94.624 210.434 95.362 210.434ZM104.207 212C104.207 211.292 104.207 210.611 104.207 209.957C104.207 209.303 104.207 208.577 104.207 207.779V203.45C104.207 202.646 104.207 201.908 104.207 201.236C104.207 200.564 104.207 199.874 104.207 199.166C104.711 199.166 105.368 199.166 106.178 199.166C106.988 199.166 107.918 199.166 108.968 199.166C109.97 199.166 110.801 199.295 111.461 199.553C112.121 199.811 112.616 200.219 112.946 200.777C113.276 201.335 113.441 202.067 113.441 202.973C113.441 203.777 113.294 204.491 113 205.115C112.706 205.739 112.22 206.228 111.542 206.582C110.864 206.936 109.949 207.113 108.797 207.113C108.503 207.113 108.185 207.113 107.843 207.113C107.507 207.113 107.177 207.113 106.853 207.113C106.529 207.113 106.25 207.113 106.016 207.113V205.394H108.356C109.034 205.394 109.589 205.313 110.021 205.151C110.453 204.989 110.771 204.731 110.975 204.377C111.185 204.023 111.29 203.561 111.29 202.991C111.29 202.523 111.215 202.151 111.065 201.875C110.915 201.593 110.717 201.383 110.471 201.245C110.231 201.101 109.964 201.005 109.67 200.957C109.382 200.909 109.1 200.885 108.824 200.885H105.269L106.295 199.49C106.295 200.198 106.295 200.888 106.295 201.56C106.295 202.226 106.295 202.964 106.295 203.774V207.779C106.295 208.577 106.295 209.303 106.295 209.957C106.295 210.611 106.295 211.292 106.295 212H104.207ZM119.275 212.216C118.507 212.216 117.835 212.087 117.259 211.829C116.683 211.571 116.2 211.223 115.81 210.785C115.426 210.341 115.138 209.837 114.946 209.273C114.754 208.703 114.658 208.106 114.658 207.482C114.658 206.588 114.838 205.793 115.198 205.097C115.558 204.395 116.08 203.843 116.764 203.441C117.448 203.033 118.273 202.829 119.239 202.829C119.977 202.829 120.631 202.946 121.201 203.18C121.771 203.414 122.248 203.744 122.632 204.17C123.022 204.59 123.316 205.082 123.514 205.646C123.712 206.21 123.811 206.822 123.811 207.482C123.811 208.376 123.631 209.18 123.271 209.894C122.911 210.608 122.389 211.175 121.705 211.595C121.027 212.009 120.217 212.216 119.275 212.216ZM119.266 210.596C119.842 210.596 120.322 210.449 120.706 210.155C121.09 209.855 121.375 209.468 121.561 208.994C121.753 208.52 121.849 208.016 121.849 207.482C121.849 206.864 121.741 206.33 121.525 205.88C121.315 205.424 121.015 205.073 120.625 204.827C120.241 204.575 119.785 204.449 119.257 204.449C118.687 204.449 118.204 204.584 117.808 204.854C117.418 205.118 117.121 205.481 116.917 205.943C116.719 206.399 116.62 206.912 116.62 207.482C116.62 208.016 116.716 208.52 116.908 208.994C117.106 209.468 117.4 209.855 117.79 210.155C118.186 210.449 118.678 210.596 119.266 210.596ZM129.169 212.216C128.329 212.216 127.63 211.997 127.072 211.559C126.52 211.121 126.106 210.545 125.83 209.831C125.56 209.111 125.425 208.334 125.425 207.5C125.425 206.618 125.569 205.823 125.857 205.115C126.151 204.407 126.58 203.849 127.144 203.441C127.708 203.033 128.392 202.829 129.196 202.829C129.586 202.829 129.946 202.88 130.276 202.982C130.606 203.084 130.897 203.225 131.149 203.405C131.401 203.585 131.611 203.789 131.779 204.017H131.959V203.117C131.959 202.367 131.959 201.638 131.959 200.93C131.959 200.216 131.959 199.514 131.959 198.824L133.885 198.617C133.885 199.337 133.885 200.066 133.885 200.804C133.885 201.536 133.885 202.307 133.885 203.117V208.076C133.885 208.814 133.885 209.489 133.885 210.101C133.885 210.713 133.885 211.346 133.885 212H132.229L132.121 210.794H131.959C131.731 211.1 131.476 211.358 131.194 211.568C130.918 211.778 130.612 211.937 130.276 212.045C129.94 212.159 129.571 212.216 129.169 212.216ZM129.826 210.533C130.15 210.533 130.444 210.482 130.708 210.38C130.972 210.272 131.206 210.122 131.41 209.93C131.62 209.738 131.803 209.51 131.959 209.246V205.61C131.797 205.37 131.605 205.172 131.383 205.016C131.161 204.854 130.918 204.734 130.654 204.656C130.39 204.572 130.12 204.53 129.844 204.53C129.292 204.53 128.836 204.665 128.476 204.935C128.116 205.205 127.846 205.568 127.666 206.024C127.486 206.474 127.396 206.972 127.396 207.518C127.396 208.04 127.48 208.532 127.648 208.994C127.822 209.45 128.086 209.822 128.44 210.11C128.8 210.392 129.262 210.533 129.826 210.533ZM140.475 212.18C139.491 212.18 138.654 211.979 137.964 211.577C137.28 211.169 136.758 210.614 136.398 209.912C136.038 209.21 135.858 208.415 135.858 207.527C135.858 206.633 136.026 205.832 136.362 205.124C136.704 204.416 137.205 203.858 137.865 203.45C138.531 203.042 139.347 202.838 140.313 202.838C140.661 202.838 141.006 202.868 141.348 202.928C141.696 202.982 142.023 203.06 142.329 203.162C142.635 203.258 142.905 203.372 143.139 203.504L142.977 205.214C142.641 205.022 142.326 204.875 142.032 204.773C141.744 204.671 141.477 204.602 141.231 204.566C140.985 204.524 140.76 204.503 140.556 204.503C139.728 204.503 139.065 204.773 138.567 205.313C138.069 205.847 137.82 206.57 137.82 207.482C137.82 208.07 137.934 208.595 138.162 209.057C138.39 209.519 138.729 209.885 139.179 210.155C139.635 210.425 140.199 210.56 140.871 210.56C141.117 210.56 141.363 210.539 141.609 210.497C141.855 210.449 142.095 210.38 142.329 210.29C142.569 210.194 142.8 210.074 143.022 209.93L143.157 211.649C142.953 211.745 142.719 211.835 142.455 211.919C142.191 211.997 141.894 212.06 141.564 212.108C141.234 212.156 140.871 212.18 140.475 212.18ZM147.408 212.189C146.898 212.189 146.442 212.087 146.04 211.883C145.638 211.673 145.32 211.373 145.086 210.983C144.858 210.587 144.744 210.107 144.744 209.543C144.744 209.045 144.828 208.628 144.996 208.292C145.17 207.95 145.398 207.671 145.68 207.455C145.962 207.239 146.277 207.071 146.625 206.951C146.973 206.831 147.324 206.744 147.678 206.69L150.333 206.276C150.357 205.778 150.282 205.397 150.108 205.133C149.94 204.869 149.7 204.689 149.388 204.593C149.082 204.497 148.734 204.449 148.344 204.449C148.14 204.449 147.918 204.464 147.678 204.494C147.444 204.524 147.195 204.575 146.931 204.647C146.673 204.713 146.4 204.797 146.112 204.899C145.83 204.995 145.539 205.112 145.239 205.25L145.131 203.54C145.353 203.45 145.602 203.363 145.878 203.279C146.154 203.195 146.451 203.12 146.769 203.054C147.093 202.982 147.426 202.928 147.768 202.892C148.11 202.856 148.458 202.838 148.812 202.838C149.52 202.838 150.126 202.943 150.63 203.153C151.134 203.363 151.521 203.699 151.791 204.161C152.061 204.617 152.196 205.211 152.196 205.943C152.196 206.231 152.196 206.588 152.196 207.014C152.196 207.44 152.196 207.836 152.196 208.202V209.282C152.196 209.708 152.196 210.14 152.196 210.578C152.196 211.016 152.196 211.49 152.196 212H150.459L150.351 210.812H150.18C150.006 211.034 149.787 211.25 149.523 211.46C149.265 211.67 148.956 211.844 148.596 211.982C148.242 212.12 147.846 212.189 147.408 212.189ZM148.038 210.659C148.326 210.659 148.608 210.596 148.884 210.47C149.166 210.338 149.427 210.152 149.667 209.912C149.907 209.672 150.114 209.381 150.288 209.039V207.455C150.198 207.509 150.081 207.56 149.937 207.608C149.799 207.656 149.589 207.71 149.307 207.77C149.025 207.83 148.629 207.905 148.119 207.995C147.825 208.043 147.573 208.13 147.363 208.256C147.153 208.382 146.988 208.547 146.868 208.751C146.754 208.949 146.697 209.186 146.697 209.462C146.697 209.9 146.829 210.209 147.093 210.389C147.363 210.569 147.678 210.659 148.038 210.659ZM157.414 212.207C157.024 212.207 156.637 212.18 156.253 212.126C155.875 212.072 155.518 211.997 155.182 211.901C154.852 211.799 154.561 211.688 154.309 211.568L154.453 209.822C154.723 209.978 155.017 210.116 155.335 210.236C155.653 210.35 155.983 210.44 156.325 210.506C156.673 210.566 157.021 210.596 157.369 210.596C157.657 210.596 157.921 210.569 158.161 210.515C158.407 210.455 158.602 210.344 158.746 210.182C158.896 210.02 158.971 209.78 158.971 209.462C158.971 209.252 158.902 209.078 158.764 208.94C158.626 208.802 158.401 208.679 158.089 208.571C157.777 208.457 157.351 208.325 156.811 208.175C156.313 208.043 155.878 207.878 155.506 207.68C155.14 207.482 154.855 207.218 154.651 206.888C154.447 206.558 154.345 206.123 154.345 205.583C154.345 204.713 154.624 204.038 155.182 203.558C155.74 203.078 156.487 202.838 157.423 202.838C157.819 202.838 158.203 202.871 158.575 202.937C158.947 202.997 159.286 203.078 159.592 203.18C159.904 203.276 160.168 203.378 160.384 203.486L160.231 205.232C159.955 205.058 159.655 204.914 159.331 204.8C159.013 204.68 158.707 204.593 158.413 204.539C158.119 204.479 157.87 204.449 157.666 204.449C157.432 204.449 157.21 204.482 157 204.548C156.796 204.608 156.631 204.716 156.505 204.872C156.379 205.022 156.316 205.226 156.316 205.484C156.316 205.688 156.364 205.862 156.46 206.006C156.556 206.15 156.73 206.282 156.982 206.402C157.24 206.522 157.612 206.648 158.098 206.78C158.704 206.954 159.217 207.137 159.637 207.329C160.063 207.521 160.384 207.773 160.6 208.085C160.816 208.397 160.924 208.829 160.924 209.381C160.924 209.933 160.804 210.422 160.564 210.848C160.324 211.274 159.946 211.607 159.43 211.847C158.914 212.087 158.242 212.207 157.414 212.207ZM166.496 212.216C165.878 212.216 165.35 212.114 164.912 211.91C164.48 211.706 164.15 211.388 163.922 210.956C163.7 210.524 163.589 209.966 163.589 209.282C163.589 208.808 163.589 208.334 163.589 207.86C163.589 207.38 163.589 206.903 163.589 206.429C163.589 205.949 163.589 205.472 163.589 204.998C163.589 204.524 163.589 204.05 163.589 203.576C163.589 202.94 163.589 202.352 163.589 201.812C163.589 201.272 163.589 200.717 163.589 200.147L165.488 199.769C165.488 200.225 165.488 200.648 165.488 201.038C165.488 201.428 165.488 201.827 165.488 202.235C165.488 202.637 165.488 203.084 165.488 203.576V208.751C165.488 209.363 165.611 209.825 165.857 210.137C166.103 210.443 166.487 210.596 167.009 210.596C167.225 210.596 167.456 210.56 167.702 210.488C167.954 210.41 168.185 210.293 168.395 210.137L168.53 211.757C168.392 211.847 168.215 211.928 167.999 212C167.789 212.066 167.552 212.117 167.288 212.153C167.03 212.195 166.766 212.216 166.496 212.216ZM161.96 204.539V203.054H168.458V204.539C167.87 204.539 167.279 204.539 166.685 204.539C166.091 204.539 165.512 204.539 164.948 204.539H164.129H161.96Z" fill="#13132C"/>
<circle cx="48" cy="192" r="24" fill="#FFF7EC"/>
<path d="M48 180L49.1237 186.351L52.5922 180.913L51.2001 187.211L56.4853 183.515L52.7893 188.8L59.0866 187.408L53.6493 190.876L60 192L53.6493 193.124L59.0866 196.592L52.7893 195.2L56.4853 200.485L51.2001 196.789L52.5922 203.087L49.1237 197.649L48 204L46.8763 197.649L43.4078 203.087L44.7999 196.789L39.5147 200.485L43.2107 195.2L36.9134 196.592L42.3507 193.124L36 192L42.3507 190.876L36.9134 187.408L43.2107 188.8L39.5147 183.515L44.7999 187.211L43.4078 180.913L46.8763 186.351L48 180Z" fill="#F18701"/>
</svg>
