<svg width="188" height="40" viewBox="0 0 188 40" fill="none" xmlns="http://www.w3.org/2000/svg">
<path d="M57.86 30C57.86 29.072 57.86 28.172 57.86 27.3C57.86 26.428 57.86 25.46 57.86 24.396V18.6C57.86 17.512 57.86 16.524 57.86 15.636C57.86 14.748 57.86 13.832 57.86 12.888C58.54 12.888 59.44 12.888 60.56 12.888C61.688 12.888 62.984 12.888 64.448 12.888C65.808 12.888 66.94 13.06 67.844 13.404C68.748 13.748 69.428 14.304 69.884 15.072C70.34 15.832 70.568 16.848 70.568 18.12C70.568 19.216 70.368 20.188 69.968 21.036C69.568 21.876 68.92 22.536 68.024 23.016C67.128 23.488 65.924 23.724 64.412 23.724C64.028 23.724 63.608 23.724 63.152 23.724C62.704 23.724 62.264 23.724 61.832 23.724C61.408 23.724 61.044 23.724 60.74 23.724V21.072H63.68C64.48 21.072 65.136 20.972 65.648 20.772C66.16 20.572 66.536 20.26 66.776 19.836C67.024 19.404 67.148 18.844 67.148 18.156C67.148 17.596 67.06 17.148 66.884 16.812C66.708 16.468 66.476 16.208 66.188 16.032C65.9 15.856 65.584 15.736 65.24 15.672C64.896 15.608 64.556 15.576 64.22 15.576H59.552L61.172 13.404C61.172 14.348 61.172 15.268 61.172 16.164C61.172 17.052 61.172 18.04 61.172 19.128V24.396C61.172 25.46 61.172 26.428 61.172 27.3C61.172 28.172 61.172 29.072 61.172 30H57.86ZM81.2624 30.3C79.7504 30.3 78.4344 30.064 77.3144 29.592C76.2024 29.12 75.2824 28.472 74.5544 27.648C73.8344 26.824 73.2944 25.88 72.9344 24.816C72.5824 23.752 72.4064 22.628 72.4064 21.444C72.4064 19.788 72.7384 18.288 73.4024 16.944C74.0664 15.592 75.0464 14.524 76.3424 13.74C77.6464 12.948 79.2544 12.552 81.1664 12.552C82.6224 12.552 83.8984 12.78 84.9944 13.236C86.0904 13.692 87.0064 14.328 87.7424 15.144C88.4784 15.96 89.0304 16.904 89.3984 17.976C89.7664 19.048 89.9504 20.2 89.9504 21.432C89.9504 23.128 89.6144 24.644 88.9424 25.98C88.2704 27.316 87.2864 28.372 85.9904 29.148C84.6944 29.916 83.1184 30.3 81.2624 30.3ZM81.2024 27.504C82.0984 27.504 82.8744 27.344 83.5304 27.024C84.1864 26.696 84.7304 26.248 85.1624 25.68C85.6024 25.104 85.9264 24.452 86.1344 23.724C86.3504 22.996 86.4584 22.232 86.4584 21.432C86.4584 20.576 86.3424 19.78 86.1104 19.044C85.8784 18.308 85.5384 17.664 85.0904 17.112C84.6504 16.552 84.1024 16.12 83.4464 15.816C82.7984 15.504 82.0504 15.348 81.2024 15.348C80.3304 15.348 79.5624 15.508 78.8984 15.828C78.2344 16.148 77.6784 16.592 77.2304 17.16C76.7904 17.728 76.4584 18.38 76.2344 19.116C76.0104 19.844 75.8984 20.616 75.8984 21.432C75.8984 22.248 76.0064 23.02 76.2224 23.748C76.4384 24.476 76.7664 25.124 77.2064 25.692C77.6464 26.26 78.1984 26.704 78.8624 27.024C79.5264 27.344 80.3064 27.504 81.2024 27.504ZM92.8288 30C92.8288 29.072 92.8288 28.172 92.8288 27.3C92.8288 26.428 92.8288 25.46 92.8288 24.396V18.612C92.8288 17.516 92.8288 16.524 92.8288 15.636C92.8288 14.748 92.8288 13.832 92.8288 12.888C93.5168 12.888 94.2168 12.888 94.9288 12.888C95.6488 12.888 96.3768 12.888 97.1128 12.888C97.8568 12.888 98.6088 12.888 99.3688 12.888C100.681 12.888 101.845 13.076 102.861 13.452C103.885 13.828 104.745 14.384 105.441 15.12C106.145 15.848 106.677 16.736 107.037 17.784C107.405 18.832 107.589 20.032 107.589 21.384C107.589 22.592 107.429 23.72 107.109 24.768C106.789 25.808 106.277 26.72 105.573 27.504C104.869 28.288 103.941 28.9 102.789 29.34C101.637 29.78 100.233 30 98.5768 30C97.8328 30 97.1408 30 96.5008 30C95.8608 30 95.2408 30 94.6408 30C94.0488 30 93.4448 30 92.8288 30ZM96.2008 27.288H98.5768C99.9368 27.288 101.021 27.032 101.829 26.52C102.637 26 103.217 25.292 103.569 24.396C103.921 23.492 104.097 22.472 104.097 21.336C104.097 20.472 103.993 19.688 103.785 18.984C103.577 18.28 103.257 17.676 102.825 17.172C102.401 16.66 101.853 16.272 101.181 16.008C100.509 15.736 99.7128 15.6 98.7928 15.6H96.2008C96.2008 16.184 96.2008 16.772 96.2008 17.364C96.2008 17.956 96.2008 18.624 96.2008 19.368V23.616C96.2008 24.328 96.2008 24.976 96.2008 25.56C96.2008 26.144 96.2008 26.72 96.2008 27.288Z" fill="#7678ED"/>
<path d="M118.542 30.3C117.166 30.3 115.926 30.088 114.822 29.664C113.718 29.232 112.778 28.624 112.002 27.84C111.226 27.048 110.63 26.112 110.214 25.032C109.806 23.944 109.602 22.748 109.602 21.444C109.602 19.724 109.95 18.196 110.646 16.86C111.35 15.516 112.346 14.464 113.634 13.704C114.922 12.936 116.454 12.552 118.23 12.552C118.782 12.552 119.326 12.588 119.862 12.66C120.406 12.732 120.922 12.832 121.41 12.96C121.906 13.088 122.362 13.232 122.778 13.392C123.202 13.544 123.574 13.708 123.894 13.884L123.63 17.028C123.014 16.644 122.414 16.336 121.83 16.104C121.246 15.864 120.682 15.692 120.138 15.588C119.602 15.484 119.082 15.432 118.578 15.432C117.522 15.432 116.578 15.668 115.746 16.14C114.922 16.612 114.274 17.296 113.802 18.192C113.33 19.088 113.094 20.172 113.094 21.444C113.094 22.268 113.214 23.048 113.454 23.784C113.702 24.512 114.07 25.156 114.558 25.716C115.046 26.276 115.654 26.716 116.382 27.036C117.118 27.348 117.974 27.504 118.95 27.504C119.334 27.504 119.722 27.48 120.114 27.432C120.506 27.376 120.898 27.292 121.29 27.18C121.682 27.068 122.07 26.916 122.454 26.724C122.838 26.532 123.218 26.3 123.594 26.028L123.798 29.136C123.462 29.336 123.086 29.512 122.67 29.664C122.254 29.808 121.818 29.928 121.362 30.024C120.914 30.12 120.45 30.188 119.97 30.228C119.49 30.276 119.014 30.3 118.542 30.3ZM126.86 30C126.86 29.072 126.86 28.172 126.86 27.3C126.86 26.428 126.86 25.46 126.86 24.396V18.6C126.86 17.512 126.86 16.524 126.86 15.636C126.86 14.748 126.86 13.832 126.86 12.888H137.972V15.684C137.22 15.684 136.408 15.684 135.536 15.684C134.672 15.684 133.652 15.684 132.476 15.684H128.348L130.148 13.404C130.148 14.348 130.148 15.268 130.148 16.164C130.148 17.052 130.148 18.04 130.148 19.128V23.868C130.148 24.932 130.148 25.9 130.148 26.772C130.148 27.644 130.148 28.548 130.148 29.484L128.564 27.204H132.728C133.712 27.204 134.644 27.204 135.524 27.204C136.404 27.204 137.248 27.204 138.056 27.204V30H126.86ZM129.392 22.68V20.028H132.584C133.656 20.028 134.576 20.028 135.344 20.028C136.112 20.028 136.852 20.028 137.564 20.028V22.68C136.812 22.68 136.052 22.68 135.284 22.68C134.516 22.68 133.612 22.68 132.572 22.68H129.392ZM146.437 30.3C145.725 30.3 144.997 30.236 144.253 30.108C143.517 29.988 142.829 29.836 142.189 29.652C141.557 29.46 141.045 29.268 140.653 29.076L140.905 26.028C141.457 26.34 142.029 26.608 142.621 26.832C143.221 27.056 143.821 27.228 144.421 27.348C145.029 27.468 145.621 27.528 146.197 27.528C146.797 27.528 147.329 27.452 147.793 27.3C148.257 27.148 148.617 26.912 148.873 26.592C149.137 26.272 149.269 25.864 149.269 25.368C149.269 24.864 149.113 24.448 148.801 24.12C148.497 23.792 148.053 23.508 147.469 23.268C146.893 23.02 146.201 22.776 145.393 22.536C144.337 22.216 143.433 21.856 142.681 21.456C141.937 21.048 141.365 20.532 140.965 19.908C140.573 19.284 140.377 18.48 140.377 17.496C140.377 16.536 140.593 15.684 141.025 14.94C141.465 14.188 142.121 13.604 142.993 13.188C143.865 12.764 144.957 12.552 146.269 12.552C146.789 12.552 147.313 12.588 147.841 12.66C148.369 12.724 148.877 12.816 149.365 12.936C149.853 13.048 150.301 13.18 150.709 13.332C151.125 13.476 151.485 13.628 151.789 13.788L151.513 16.836C151.017 16.516 150.493 16.244 149.941 16.02C149.397 15.796 148.857 15.628 148.321 15.516C147.793 15.404 147.305 15.348 146.857 15.348C146.321 15.348 145.829 15.424 145.381 15.576C144.941 15.72 144.585 15.944 144.313 16.248C144.049 16.544 143.917 16.92 143.917 17.376C143.917 17.816 144.037 18.184 144.277 18.48C144.517 18.776 144.893 19.04 145.405 19.272C145.917 19.504 146.573 19.744 147.373 19.992C148.741 20.408 149.821 20.84 150.613 21.288C151.405 21.728 151.965 22.256 152.293 22.872C152.629 23.488 152.797 24.26 152.797 25.188C152.797 26.196 152.573 27.084 152.125 27.852C151.685 28.62 150.997 29.22 150.061 29.652C149.125 30.084 147.917 30.3 146.437 30.3ZM159.302 30C159.302 29.072 159.302 28.172 159.302 27.3C159.302 26.428 159.302 25.46 159.302 24.396V19.128C159.302 18.032 159.302 17.04 159.302 16.152C159.302 15.264 159.302 14.348 159.302 13.404L160.586 15.828H158.39C157.47 15.828 156.65 15.828 155.93 15.828C155.218 15.828 154.542 15.828 153.902 15.828V12.888H168.038V15.828C167.398 15.828 166.722 15.828 166.01 15.828C165.298 15.828 164.478 15.828 163.55 15.828H161.354L162.65 13.404C162.65 14.348 162.65 15.264 162.65 16.152C162.65 17.04 162.65 18.032 162.65 19.128V24.396C162.65 25.46 162.65 26.428 162.65 27.3C162.65 28.172 162.65 29.072 162.65 30H159.302ZM177.942 30.3C176.43 30.3 175.114 30.064 173.994 29.592C172.882 29.12 171.962 28.472 171.234 27.648C170.514 26.824 169.974 25.88 169.614 24.816C169.262 23.752 169.086 22.628 169.086 21.444C169.086 19.788 169.418 18.288 170.082 16.944C170.746 15.592 171.726 14.524 173.022 13.74C174.326 12.948 175.934 12.552 177.846 12.552C179.302 12.552 180.578 12.78 181.674 13.236C182.77 13.692 183.686 14.328 184.422 15.144C185.158 15.96 185.71 16.904 186.078 17.976C186.446 19.048 186.63 20.2 186.63 21.432C186.63 23.128 186.294 24.644 185.622 25.98C184.95 27.316 183.966 28.372 182.67 29.148C181.374 29.916 179.798 30.3 177.942 30.3ZM177.882 27.504C178.778 27.504 179.554 27.344 180.21 27.024C180.866 26.696 181.41 26.248 181.842 25.68C182.282 25.104 182.606 24.452 182.814 23.724C183.03 22.996 183.138 22.232 183.138 21.432C183.138 20.576 183.022 19.78 182.79 19.044C182.558 18.308 182.218 17.664 181.77 17.112C181.33 16.552 180.782 16.12 180.126 15.816C179.478 15.504 178.73 15.348 177.882 15.348C177.01 15.348 176.242 15.508 175.578 15.828C174.914 16.148 174.358 16.592 173.91 17.16C173.47 17.728 173.138 18.38 172.914 19.116C172.69 19.844 172.578 20.616 172.578 21.432C172.578 22.248 172.686 23.02 172.902 23.748C173.118 24.476 173.446 25.124 173.886 25.692C174.326 26.26 174.878 26.704 175.542 27.024C176.206 27.344 176.986 27.504 177.882 27.504Z" fill="#F18701"/>
<circle cx="20" cy="20" r="20" fill="#7678ED"/>
<path d="M12.1099 13.3678C11.861 12.5928 12.5928 11.861 13.3677 12.1099L19.6942 14.1418C19.893 14.2057 20.1069 14.2057 20.3058 14.1418L26.6322 12.1099C27.4072 11.861 28.139 12.5928 27.8901 13.3678L25.8582 19.6942C25.7943 19.8931 25.7943 20.1069 25.8582 20.3058L27.8901 26.6322C28.139 27.4072 27.4072 28.139 26.6322 27.8901L20.3058 25.8582C20.1069 25.7943 19.893 25.7943 19.6942 25.8582L13.3677 27.8901C12.5928 28.139 11.861 27.4072 12.1099 26.6322L14.1418 20.3058C14.2056 20.1069 14.2056 19.8931 14.1418 19.6942L12.1099 13.3678Z" fill="white"/>
<circle cx="20" cy="20" r="3" fill="#F18701"/>
</svg>
