<svg width="48" height="48" viewBox="0 0 48 48" fill="none" xmlns="http://www.w3.org/2000/svg">
<circle cx="24" cy="24" r="23" stroke="#F2F2F2" stroke-width="2"/>
<mask id="path-2-inside-1_2004_261" fill="white">
<path d="M40.2737 7.72628C40.6586 7.34142 40.6598 6.7157 40.2595 6.34696C35.8375 2.27376 30.036 -6.47566e-07 24 0C17.6348 6.82886e-07 11.5303 2.52857 7.02944 7.02944C2.52856 11.5303 -2.02327e-07 17.6348 0 24C1.91863e-07 30.036 2.27376 35.8375 6.34696 40.2595C6.7157 40.6598 7.34142 40.6586 7.72628 40.2737V40.2737C8.11114 39.8889 8.10927 39.2663 7.742 38.8646C4.03765 34.8133 1.97097 29.5132 1.97097 24C1.97097 18.1575 4.29188 12.5544 8.42312 8.42312C12.5544 4.29188 18.1575 1.97097 24 1.97097C29.5132 1.97097 34.8133 4.03765 38.8646 7.74199C39.2663 8.10927 39.8889 8.11113 40.2737 7.72628V7.72628Z"/>
</mask>
<path d="M40.2737 7.72628C40.6586 7.34142 40.6598 6.7157 40.2595 6.34696C35.8375 2.27376 30.036 -6.47566e-07 24 0C17.6348 6.82886e-07 11.5303 2.52857 7.02944 7.02944C2.52856 11.5303 -2.02327e-07 17.6348 0 24C1.91863e-07 30.036 2.27376 35.8375 6.34696 40.2595C6.7157 40.6598 7.34142 40.6586 7.72628 40.2737V40.2737C8.11114 39.8889 8.10927 39.2663 7.742 38.8646C4.03765 34.8133 1.97097 29.5132 1.97097 24C1.97097 18.1575 4.29188 12.5544 8.42312 8.42312C12.5544 4.29188 18.1575 1.97097 24 1.97097C29.5132 1.97097 34.8133 4.03765 38.8646 7.74199C39.2663 8.10927 39.8889 8.11113 40.2737 7.72628V7.72628Z" stroke="#7678ED" stroke-width="4" mask="url(#path-2-inside-1_2004_261)"/>
<path d="M30.376 23.584L19.7774 16.5182C19.4451 16.2967 19 16.5349 19 16.9343V31.0657C19 31.4651 19.4451 31.7033 19.7773 31.4818L30.376 24.416C30.6728 24.2181 30.6728 23.7819 30.376 23.584Z" fill="#7678ED"/>
</svg>
