<svg width="88" height="88" viewBox="0 0 88 88" fill="none" xmlns="http://www.w3.org/2000/svg">
<circle cx="44" cy="44" r="44" fill="#FFF7EC"/>
<path d="M55.65 34.1501C55.2167 33.6334 54.5 33.4834 53.8667 33.6834C52.5167 34.1334 50.9833 34.0167 49.65 33.2667C48.3167 32.5001 47.45 31.2334 47.15 29.8501C47 29.1834 46.5 28.6334 45.8333 28.5334C44.1667 28.2667 42.4333 28.2667 40.7333 28.5501C40.0667 28.6667 39.5833 29.2001 39.4333 29.8667C39.1333 31.2667 38.2833 32.5334 36.95 33.3167C35.6167 34.1001 34.0833 34.2001 32.7333 33.7667C32.1 33.5667 31.3833 33.7167 30.95 34.2334C29.8667 35.5834 29.0167 37.0834 28.4333 38.6667C28.2 39.3001 28.4333 40.0001 28.9333 40.4334C29.9833 41.4001 30.65 42.7834 30.6667 44.3167C30.6667 45.8667 30 47.2334 28.95 48.2001C28.45 48.6501 28.2333 49.3501 28.4667 49.9667C28.7667 50.7501 29.1333 51.5334 29.5667 52.2834C30 53.0334 30.5 53.7334 31.0333 54.3834C31.4667 54.9001 32.1833 55.0501 32.8167 54.8501C34.1667 54.4001 35.7 54.5167 37.0333 55.2667C38.3667 56.0334 39.2333 57.3001 39.5333 58.6834C39.6833 59.3334 40.1667 59.8834 40.8333 59.9834C42.5167 60.2501 44.2333 60.2501 45.9333 59.9667C46.6 59.8501 47.0833 59.3167 47.2333 58.6501C47.5333 57.2501 48.3833 55.9834 49.7167 55.2001C51.05 54.4167 52.5833 54.3167 53.9333 54.7501C54.5833 54.9501 55.3 54.8001 55.7167 54.2667C56.8 52.9167 57.65 51.4167 58.25 49.8334C58.4833 49.2001 58.25 48.5001 57.75 48.0667C56.6833 47.1167 56.0167 45.7334 56 44.2001C56 42.6501 56.6667 41.2834 57.7167 40.3167C58.2167 39.8667 58.4333 39.1667 58.2 38.5501C57.9 37.7667 57.5333 36.9834 57.1 36.2334C56.6833 35.4834 56.1833 34.8001 55.65 34.1501Z" stroke="#F18701" stroke-width="2" stroke-miterlimit="10" stroke-linecap="round" stroke-linejoin="round"/>
<path d="M43.3499 49.2002C46.0745 49.2002 48.2833 46.9914 48.2833 44.2668C48.2833 41.5422 46.0745 39.3335 43.3499 39.3335C40.6253 39.3335 38.4166 41.5422 38.4166 44.2668C38.4166 46.9914 40.6253 49.2002 43.3499 49.2002Z" stroke="#F18701" stroke-width="2" stroke-miterlimit="10" stroke-linecap="round" stroke-linejoin="round"/>
</svg>
