<svg width="19" height="15" viewBox="0 0 19 15" fill="none" xmlns="http://www.w3.org/2000/svg">
<path d="M12.88 14.952C11.712 14.824 10.864 14.368 10.336 13.584C9.824 12.8 9.568 11.848 9.568 10.728C9.568 9.64 9.728 8.576 10.048 7.536C10.368 6.496 10.8 5.512 11.344 4.584C11.904 3.656 12.512 2.816 13.168 2.064C13.84 1.296 14.512 0.647999 15.184 0.119997L18.208 0.0479994C17.616 0.959998 17.136 1.888 16.768 2.832C16.4 3.76 16.128 4.744 15.952 5.784C15.792 6.824 15.712 7.944 15.712 9.144C15.712 10.024 15.712 10.936 15.712 11.88C15.712 12.824 15.712 13.768 15.712 14.712L12.88 14.952ZM3.424 14.952C2.256 14.824 1.408 14.368 0.88 13.584C0.368 12.8 0.112 11.848 0.112 10.728C0.112 9.64 0.272 8.576 0.592 7.536C0.912 6.496 1.344 5.512 1.888 4.584C2.448 3.656 3.056 2.816 3.712 2.064C4.384 1.296 5.056 0.647999 5.728 0.119997L8.752 0.0479994C8.16 0.959998 7.68 1.888 7.312 2.832C6.944 3.76 6.672 4.744 6.496 5.784C6.336 6.824 6.256 7.944 6.256 9.144C6.256 10.024 6.256 10.936 6.256 11.88C6.256 12.824 6.256 13.768 6.256 14.712L3.424 14.952Z" fill="#DDDDDD"/>
</svg>
